# Blender 4.0.1
# www.blender.org
mtllib env_sphere.mtl
g Sphere_Mesh
v 0.000000 43.301270 -25.000000
v 0.000000 12.940952 -48.296291
v 0.000000 -12.940952 -48.296291
v 0.000000 -25.000000 -43.301270
v 2.879633 48.296291 -12.616496
v 5.563023 43.301270 -24.373198
v 7.867303 35.355339 -34.468906
v 9.635439 25.000000 -42.215614
v 10.746936 12.940952 -47.085400
v 11.126046 0.000000 -48.746395
v 10.746936 -12.940952 -47.085400
v 9.635439 -25.000000 -42.215614
v 7.867303 -35.355339 -34.468906
v 5.563023 -43.301270 -24.373198
v 2.879633 -48.296291 -12.616496
v 5.614869 48.296291 -11.659395
v 10.847094 43.301270 -22.524221
v 15.340106 35.355339 -31.854061
v 18.787716 25.000000 -39.013092
v 20.954975 12.940952 -43.513454
v 21.694187 0.000000 -45.048443
v 20.954975 -12.940952 -43.513454
v 18.787716 -25.000000 -39.013092
v 15.340106 -35.355339 -31.854061
v 10.847094 -43.301270 -22.524221
v 5.614869 -48.296291 -11.659395
v 8.068552 48.296291 -10.117644
v 15.587243 43.301270 -19.545786
v 22.043694 35.355339 -27.641916
v 26.997900 25.000000 -33.854294
v 30.112244 12.940952 -37.759560
v 31.174486 0.000000 -39.091572
v 30.112244 -12.940952 -37.759560
v 26.997900 -25.000000 -33.854294
v 22.043694 -35.355339 -27.641916
v 15.587243 -43.301270 -19.545786
v 8.068552 -48.296291 -10.117644
v 10.117644 48.296291 -8.068552
v 19.545784 43.301270 -15.587243
v 27.641916 35.355339 -22.043692
v 33.854294 25.000000 -26.997900
v 37.759560 12.940952 -30.112244
v 39.091568 0.000000 -31.174486
v 37.759560 -12.940952 -30.112244
v 33.854294 -25.000000 -26.997900
v 27.641916 -35.355339 -22.043692
v 19.545784 -43.301270 -15.587243
v 10.117644 -48.296291 -8.068552
v 11.659395 48.296291 -5.614869
v 22.524218 43.301270 -10.847092
v 31.854057 35.355339 -15.340105
v 39.013092 25.000000 -18.787718
v 43.513454 12.940952 -20.954973
v 45.048435 0.000000 -21.694183
v 43.513454 -12.940952 -20.954973
v 39.013092 -25.000000 -18.787718
v 31.854057 -35.355339 -15.340105
v 22.524218 -43.301270 -10.847092
v 11.659395 -48.296291 -5.614869
v 12.616496 48.296291 -2.879633
v 24.373194 43.301270 -5.563022
v 34.468903 35.355339 -7.867302
v 42.215614 25.000000 -9.635440
v 47.085400 12.940952 -10.746935
v 48.746387 0.000000 -11.126044
v 47.085400 -12.940952 -10.746935
v 42.215614 -25.000000 -9.635440
v 34.468903 -35.355339 -7.867302
v 24.373194 -43.301270 -5.563022
v 12.616496 -48.296291 -2.879633
v 12.940952 48.296291 -0.000001
v 24.999996 43.301270 0.000000
v 35.355335 35.355339 0.000000
v 43.301266 25.000000 -0.000001
v 48.296288 12.940952 0.000000
v 49.999992 0.000000 0.000001
v 48.296288 -12.940952 0.000000
v 43.301266 -25.000000 -0.000001
v 35.355335 -35.355339 0.000000
v 24.999996 -43.301270 0.000000
v 12.940952 -48.296291 -0.000001
v 12.616496 48.296291 2.879632
v 24.373194 43.301270 5.563023
v 34.468903 35.355339 7.867302
v 42.215614 25.000000 9.635437
v 47.085400 12.940952 10.746935
v 48.746387 0.000000 11.126045
v 47.085400 -12.940952 10.746935
v 42.215614 -25.000000 9.635437
v 34.468903 -35.355339 7.867302
v 24.373194 -43.301270 5.563023
v 12.616496 -48.296291 2.879632
v 11.659395 48.296291 5.614869
v 22.524218 43.301270 10.847092
v 31.854057 35.355339 15.340105
v 39.013092 25.000000 18.787714
v 43.513451 12.940952 20.954973
v 45.048435 0.000000 21.694183
v 43.513451 -12.940952 20.954973
v 39.013092 -25.000000 18.787714
v 31.854057 -35.355339 15.340105
v 22.524218 -43.301270 10.847092
v 11.659395 -48.296291 5.614869
v 10.117644 48.296291 8.068552
v 19.545784 43.301270 15.587242
v 27.641912 35.355339 22.043692
v 33.854290 25.000000 26.997896
v 37.759556 12.940952 30.112244
v 39.091568 0.000000 31.174484
v 37.759556 -12.940952 30.112244
v 33.854290 -25.000000 26.997896
v 27.641912 -35.355339 22.043692
v 19.545784 -43.301270 15.587242
v 10.117644 -48.296291 8.068552
v 8.068552 48.296291 10.117644
v 15.587240 43.301270 19.545782
v 22.043690 35.355339 27.641916
v 26.997896 25.000000 33.854290
v 30.112236 12.940952 37.759556
v 31.174480 0.000000 39.091564
v 30.112236 -12.940952 37.759556
v 26.997896 -25.000000 33.854290
v 22.043690 -35.355339 27.641916
v 15.587240 -43.301270 19.545782
v 8.068552 -48.296291 10.117644
v 5.614869 48.296291 11.659395
v 10.847090 43.301270 22.524214
v 15.340105 35.355339 31.854057
v 18.787714 25.000000 39.013092
v 20.954969 12.940952 43.513447
v 21.694180 0.000000 45.048428
v 20.954969 -12.940952 43.513447
v 18.787714 -25.000000 39.013092
v 15.340105 -35.355339 31.854057
v 10.847090 -43.301270 22.524214
v 5.614869 -48.296291 11.659395
v 2.879633 48.296291 12.616496
v 5.563021 43.301270 24.373190
v 7.867302 35.355339 34.468903
v 9.635437 25.000000 42.215614
v 10.746931 12.940952 47.085392
v 11.126041 0.000000 48.746380
v 10.746931 -12.940952 47.085392
v 9.635437 -25.000000 42.215614
v 7.867302 -35.355339 34.468903
v 5.563021 -43.301270 24.373190
v 2.879633 -48.296291 12.616496
v 0.000001 48.296291 12.940952
v -0.000001 43.301270 24.999990
v 0.000000 35.355339 35.355335
v -0.000001 25.000000 43.301262
v -0.000002 12.940952 48.296280
v -0.000002 0.000000 49.999981
v -0.000002 -12.940952 48.296280
v -0.000001 -25.000000 43.301262
v 0.000000 -35.355339 35.355335
v -0.000001 -43.301270 24.999990
v 0.000001 -48.296291 12.940952
v -2.879632 48.296291 12.616496
v -5.563023 43.301270 24.373188
v -7.867302 35.355339 34.468903
v -9.635438 25.000000 42.215611
v -10.746935 12.940952 47.085388
v -11.126045 0.000000 48.746376
v -10.746935 -12.940952 47.085388
v -9.635438 -25.000000 42.215611
v -7.867302 -35.355339 34.468903
v -5.563023 -43.301270 24.373188
v -2.879632 -48.296291 12.616496
v -5.614869 48.296291 11.659395
v -10.847090 43.301270 22.524212
v -15.340105 35.355339 31.854057
v -18.787714 25.000000 39.013092
v -20.954973 12.940952 43.513443
v -21.694180 0.000000 45.048424
v -20.954973 -12.940952 43.513443
v -18.787714 -25.000000 39.013092
v -15.340105 -35.355339 31.854057
v -10.847090 -43.301270 22.524212
v -5.614869 -48.296291 11.659395
v -8.068552 48.296291 10.117644
v -15.587239 43.301270 19.545778
v -22.043692 35.355339 27.641912
v -26.997896 25.000000 33.854290
v -30.112240 12.940952 37.759548
v -31.174479 0.000000 39.091557
v -30.112240 -12.940952 37.759548
v -26.997896 -25.000000 33.854290
v -22.043692 -35.355339 27.641912
v -15.587239 -43.301270 19.545778
v -8.068552 -48.296291 10.117644
v -10.117644 48.296291 8.068552
v -19.545778 43.301270 15.587239
v -27.641916 35.355339 22.043690
v -33.854290 25.000000 26.997896
v -37.759556 12.940952 30.112230
v -39.091557 0.000000 31.174479
v -37.759556 -12.940952 30.112230
v -33.854290 -25.000000 26.997896
v -27.641916 -35.355339 22.043690
v -19.545778 -43.301270 15.587239
v -10.117644 -48.296291 8.068552
v -11.659395 48.296291 5.614869
v -22.524212 43.301270 10.847089
v -31.854057 35.355339 15.340105
v -39.013092 25.000000 18.787714
v -43.513443 12.940952 20.954964
v -45.048424 0.000000 21.694178
v -43.513443 -12.940952 20.954964
v -39.013092 -25.000000 18.787714
v -31.854057 -35.355339 15.340105
v -22.524212 -43.301270 10.847089
v -11.659395 -48.296291 5.614869
v -12.616496 48.296291 2.879633
v -24.373188 43.301270 5.563020
v -34.468903 35.355339 7.867302
v -42.215614 25.000000 9.635437
v -47.085388 12.940952 10.746926
v -48.746376 0.000000 11.126040
v -47.085388 -12.940952 10.746926
v -42.215614 -25.000000 9.635437
v -34.468903 -35.355339 7.867302
v -24.373188 -43.301270 5.563020
v -12.616496 -48.296291 2.879633
v 0.000000 50.000000 0.000000
v -12.940952 48.296291 0.000001
v -24.999990 43.301270 -0.000001
v -35.355335 35.355339 0.000000
v -43.301262 25.000000 -0.000001
v -48.296276 12.940952 -0.000007
v -49.999981 0.000000 -0.000002
v -48.296276 -12.940952 -0.000007
v -43.301262 -25.000000 -0.000001
v -35.355335 -35.355339 0.000000
v -24.999990 -43.301270 -0.000001
v -12.940952 -48.296291 0.000001
v -12.616496 48.296291 -2.879632
v -24.373188 43.301270 -5.563022
v -34.468903 35.355339 -7.867302
v -42.215611 25.000000 -9.635438
v -47.085384 12.940952 -10.746939
v -48.746376 0.000000 -11.126044
v -47.085384 -12.940952 -10.746939
v -42.215611 -25.000000 -9.635438
v -34.468903 -35.355339 -7.867302
v -24.373188 -43.301270 -5.563022
v -12.616496 -48.296291 -2.879632
v -11.659395 48.296291 -5.614869
v -22.524212 43.301270 -10.847090
v -31.854057 35.355339 -15.340105
v -39.013092 25.000000 -18.787714
v -43.513435 12.940952 -20.954973
v -45.048424 0.000000 -21.694180
v -43.513435 -12.940952 -20.954973
v -39.013092 -25.000000 -18.787714
v -31.854057 -35.355339 -15.340105
v -22.524212 -43.301270 -10.847090
v -11.659395 -48.296291 -5.614869
v -10.117644 48.296291 -8.068552
v -19.545778 43.301270 -15.587239
v -27.641912 35.355339 -22.043692
v -33.854290 25.000000 -26.997896
v -37.759544 12.940952 -30.112240
v -39.091557 0.000000 -31.174479
v -37.759544 -12.940952 -30.112240
v -33.854290 -25.000000 -26.997896
v -27.641912 -35.355339 -22.043692
v -19.545778 -43.301270 -15.587239
v -10.117644 -48.296291 -8.068552
v -8.068552 48.296291 -10.117644
v -15.587239 43.301270 -19.545778
v -22.043690 35.355339 -27.641916
v -26.997896 25.000000 -33.854290
v -30.112230 12.940952 -37.759552
v -31.174479 0.000000 -39.091557
v -30.112230 -12.940952 -37.759552
v -26.997896 -25.000000 -33.854290
v -22.043690 -35.355339 -27.641916
v -15.587239 -43.301270 -19.545778
v -8.068552 -48.296291 -10.117644
v -5.614869 48.296291 -11.659395
v -10.847089 43.301270 -22.524212
v -15.340105 35.355339 -31.854057
v -18.787714 25.000000 -39.013092
v -20.954964 12.940952 -43.513443
v -21.694178 0.000000 -45.048424
v -20.954964 -12.940952 -43.513443
v -18.787714 -25.000000 -39.013092
v -15.340105 -35.355339 -31.854057
v -10.847089 -43.301270 -22.524212
v -5.614869 -48.296291 -11.659395
v -2.879633 48.296291 -12.616496
v -5.563020 43.301270 -24.373188
v -7.867302 35.355339 -34.468903
v -9.635437 25.000000 -42.215614
v -10.746927 12.940952 -47.085388
v -11.126040 0.000000 -48.746376
v -10.746927 -12.940952 -47.085388
v -9.635437 -25.000000 -42.215614
v -7.867302 -35.355339 -34.468903
v -5.563020 -43.301270 -24.373188
v -2.879633 -48.296291 -12.616496
v -0.000001 48.296291 -12.940952
v 0.000000 35.355339 -35.355335
v 0.000001 25.000000 -43.301262
v 0.000002 0.000000 -49.999981
v 0.000000 -35.355339 -35.355335
v 0.000001 -43.301270 -24.999990
v -0.000001 -48.296291 -12.940952
v 0.000000 -50.000000 0.000000
vn -0.0000 0.2565 0.9665
vn -0.2225 -0.0000 0.9749
vn -0.0000 -0.0000 1.0000
vn -0.0000 -0.4960 0.8683
vn -0.1584 -0.7025 0.6939
vn -0.0000 -0.7025 0.7117
vn -0.0000 0.9636 0.2675
vn -0.1128 0.8620 0.4942
vn -0.0000 0.8620 0.5069
vn -0.0000 -0.9636 0.2675
vn -0.0595 -0.9636 0.2608
vn -0.0000 -1.0000 -0.0000
vn -0.0000 0.4960 0.8683
vn -0.2151 0.2565 0.9423
vn -0.0000 -0.2565 0.9665
vn -0.1932 -0.4960 0.8465
vn -0.0000 1.0000 -0.0000
vn -0.0595 0.9636 0.2608
vn -0.0000 -0.8620 0.5069
vn -0.0000 0.7025 0.7117
vn -0.1932 0.4960 0.8465
vn -0.2151 -0.2565 0.9423
vn -0.1128 -0.8620 0.4942
vn -0.1584 0.7025 0.6939
vn -0.1161 0.9636 0.2410
vn -0.1161 -0.9636 0.2410
vn -0.3767 0.4960 0.7823
vn -0.4194 -0.2565 0.8708
vn -0.2199 -0.8620 0.4567
vn -0.3088 0.7025 0.6412
vn -0.4339 -0.0000 0.9010
vn -0.3088 -0.7025 0.6412
vn -0.2199 0.8620 0.4567
vn -0.4194 0.2565 0.8708
vn -0.3767 -0.4960 0.7823
vn -0.4437 -0.7025 0.5564
vn -0.3161 0.8620 0.3963
vn -0.1668 -0.9636 0.2091
vn -0.6026 0.2565 0.7557
vn -0.5414 -0.4960 0.6789
vn -0.1668 0.9636 0.2091
vn -0.5414 0.4960 0.6789
vn -0.6026 -0.2565 0.7557
vn -0.3161 -0.8620 0.3963
vn -0.4437 0.7025 0.5564
vn -0.6235 -0.0000 0.7818
vn -0.3963 -0.8620 0.3161
vn -0.5564 0.7025 0.4437
vn -0.7818 -0.0000 0.6235
vn -0.5564 -0.7025 0.4437
vn -0.3963 0.8620 0.3161
vn -0.2091 -0.9636 0.1668
vn -0.7557 0.2565 0.6026
vn -0.6789 -0.4960 0.5414
vn -0.2091 0.9636 0.1668
vn -0.6789 0.4960 0.5414
vn -0.7557 -0.2565 0.6026
vn -0.7823 -0.4960 0.3767
vn -0.2410 0.9636 0.1161
vn -0.2410 -0.9636 0.1161
vn -0.7823 0.4960 0.3767
vn -0.8708 -0.2565 0.4194
vn -0.4567 -0.8620 0.2199
vn -0.6412 0.7025 0.3088
vn -0.9010 -0.0000 0.4339
vn -0.6412 -0.7025 0.3088
vn -0.4567 0.8620 0.2199
vn -0.8708 0.2565 0.4194
vn -0.6939 -0.7025 0.1584
vn -0.4942 0.8620 0.1128
vn -0.2608 -0.9636 0.0595
vn -0.9423 0.2565 0.2151
vn -0.8465 -0.4960 0.1932
vn -0.2608 0.9636 0.0595
vn -0.8465 0.4960 0.1932
vn -0.9423 -0.2565 0.2151
vn -0.4942 -0.8620 0.1128
vn -0.6939 0.7025 0.1584
vn -0.9749 -0.0000 0.2225
vn -0.9665 -0.2565 -0.0000
vn -0.5069 -0.8620 -0.0000
vn -0.7117 0.7025 -0.0000
vn -1.0000 -0.0000 -0.0000
vn -0.7117 -0.7025 -0.0000
vn -0.5069 0.8620 -0.0000
vn -0.2675 -0.9636 -0.0000
vn -0.9665 0.2565 -0.0000
vn -0.8683 -0.4960 -0.0000
vn -0.2675 0.9636 -0.0000
vn -0.8683 0.4960 -0.0000
vn -0.8465 -0.4960 -0.1932
vn -0.2608 0.9636 -0.0595
vn -0.2608 -0.9636 -0.0595
vn -0.8465 0.4960 -0.1932
vn -0.9423 -0.2565 -0.2151
vn -0.4942 -0.8620 -0.1128
vn -0.6939 0.7025 -0.1584
vn -0.9749 -0.0000 -0.2225
vn -0.6939 -0.7025 -0.1584
vn -0.4942 0.8620 -0.1128
vn -0.9423 0.2565 -0.2151
vn -0.9010 -0.0000 -0.4339
vn -0.6412 -0.7025 -0.3088
vn -0.4567 0.8620 -0.2199
vn -0.2410 -0.9636 -0.1161
vn -0.8708 0.2565 -0.4194
vn -0.7823 -0.4960 -0.3767
vn -0.2410 0.9636 -0.1161
vn -0.7823 0.4960 -0.3767
vn -0.8708 -0.2565 -0.4194
vn -0.4567 -0.8620 -0.2199
vn -0.6412 0.7025 -0.3088
vn -0.7557 -0.2565 -0.6026
vn -0.3963 -0.8620 -0.3161
vn -0.5564 0.7025 -0.4437
vn -0.7818 -0.0000 -0.6235
vn -0.5564 -0.7025 -0.4437
vn -0.3963 0.8620 -0.3161
vn -0.2091 -0.9636 -0.1668
vn -0.7557 0.2565 -0.6026
vn -0.6789 -0.4960 -0.5414
vn -0.2091 0.9636 -0.1668
vn -0.6789 0.4960 -0.5414
vn -0.6026 0.2565 -0.7557
vn -0.5414 -0.4960 -0.6789
vn -0.1668 0.9636 -0.2091
vn -0.1668 -0.9636 -0.2091
vn -0.5414 0.4960 -0.6789
vn -0.6026 -0.2565 -0.7557
vn -0.3161 -0.8620 -0.3963
vn -0.4437 0.7025 -0.5564
vn -0.6235 -0.0000 -0.7818
vn -0.4437 -0.7025 -0.5564
vn -0.3161 0.8620 -0.3963
vn -0.4339 -0.0000 -0.9010
vn -0.3088 -0.7025 -0.6412
vn -0.2199 0.8620 -0.4567
vn -0.1161 -0.9636 -0.2410
vn -0.4194 0.2565 -0.8708
vn -0.3767 -0.4960 -0.7823
vn -0.1161 0.9636 -0.2410
vn -0.3767 0.4960 -0.7823
vn -0.4194 -0.2565 -0.8708
vn -0.2199 -0.8620 -0.4567
vn -0.3088 0.7025 -0.6412
vn -0.1932 0.4960 -0.8465
vn -0.2151 -0.2565 -0.9423
vn -0.1128 -0.8620 -0.4942
vn -0.1584 0.7025 -0.6939
vn -0.2225 -0.0000 -0.9749
vn -0.1584 -0.7025 -0.6939
vn -0.1128 0.8620 -0.4942
vn -0.0595 -0.9636 -0.2608
vn -0.2151 0.2565 -0.9423
vn -0.1932 -0.4960 -0.8465
vn -0.0595 0.9636 -0.2608
vn -0.0000 -0.9636 -0.2675
vn -0.0000 0.2565 -0.9665
vn -0.0000 -0.4960 -0.8683
vn -0.0000 0.9636 -0.2675
vn -0.0000 0.4960 -0.8683
vn -0.0000 -0.2565 -0.9665
vn -0.0000 -0.8620 -0.5069
vn -0.0000 0.7025 -0.7117
vn -0.0000 -0.0000 -1.0000
vn -0.0000 -0.7025 -0.7117
vn -0.0000 0.8620 -0.5069
vn 0.1584 0.7025 -0.6939
vn 0.2225 -0.0000 -0.9749
vn 0.1584 -0.7025 -0.6939
vn 0.1128 0.8620 -0.4942
vn 0.0595 -0.9636 -0.2608
vn 0.2151 0.2565 -0.9423
vn 0.1932 -0.4960 -0.8465
vn 0.0595 0.9636 -0.2608
vn 0.1932 0.4960 -0.8465
vn 0.2151 -0.2565 -0.9423
vn 0.1128 -0.8620 -0.4942
vn 0.1161 -0.9636 -0.2410
vn 0.3767 0.4960 -0.7823
vn 0.4194 -0.2565 -0.8708
vn 0.2199 -0.8620 -0.4567
vn 0.3088 0.7025 -0.6412
vn 0.4339 -0.0000 -0.9010
vn 0.3088 -0.7025 -0.6412
vn 0.2199 0.8620 -0.4567
vn 0.4194 0.2565 -0.8708
vn 0.3767 -0.4960 -0.7823
vn 0.1161 0.9636 -0.2410
vn 0.3161 0.8620 -0.3963
vn 0.1668 -0.9636 -0.2091
vn 0.6026 0.2565 -0.7557
vn 0.5414 -0.4960 -0.6789
vn 0.1668 0.9636 -0.2091
vn 0.5414 0.4960 -0.6789
vn 0.6026 -0.2565 -0.7557
vn 0.3161 -0.8620 -0.3963
vn 0.4437 0.7025 -0.5564
vn 0.6235 -0.0000 -0.7818
vn 0.4437 -0.7025 -0.5564
vn 0.3963 -0.8620 -0.3161
vn 0.5564 0.7025 -0.4437
vn 0.7818 -0.0000 -0.6235
vn 0.5564 -0.7025 -0.4437
vn 0.3963 0.8620 -0.3161
vn 0.2091 -0.9636 -0.1668
vn 0.7557 0.2565 -0.6026
vn 0.6789 -0.4960 -0.5414
vn 0.2091 0.9636 -0.1668
vn 0.6789 0.4960 -0.5414
vn 0.7557 -0.2565 -0.6026
vn 0.2410 0.9636 -0.1161
vn 0.2410 -0.9636 -0.1161
vn 0.7823 0.4960 -0.3767
vn 0.8708 -0.2565 -0.4194
vn 0.4567 -0.8620 -0.2199
vn 0.6412 0.7025 -0.3088
vn 0.9010 -0.0000 -0.4339
vn 0.6412 -0.7025 -0.3088
vn 0.4567 0.8620 -0.2199
vn 0.8708 0.2565 -0.4194
vn 0.7823 -0.4960 -0.3767
vn 0.6939 -0.7025 -0.1584
vn 0.4942 0.8620 -0.1128
vn 0.2608 -0.9636 -0.0595
vn 0.9423 0.2565 -0.2151
vn 0.8465 -0.4960 -0.1932
vn 0.2608 0.9636 -0.0595
vn 0.8465 0.4960 -0.1932
vn 0.9423 -0.2565 -0.2151
vn 0.4942 -0.8620 -0.1128
vn 0.6939 0.7025 -0.1584
vn 0.9749 -0.0000 -0.2225
vn 0.5069 -0.8620 -0.0000
vn 0.7117 0.7025 -0.0000
vn 1.0000 -0.0000 -0.0000
vn 0.7117 -0.7025 -0.0000
vn 0.5069 0.8620 -0.0000
vn 0.2675 -0.9636 -0.0000
vn 0.9665 0.2565 -0.0000
vn 0.8683 -0.4960 -0.0000
vn 0.2675 0.9636 -0.0000
vn 0.8683 0.4960 -0.0000
vn 0.9665 -0.2565 -0.0000
vn 0.8465 -0.4960 0.1932
vn 0.2608 0.9636 0.0595
vn 0.2608 -0.9636 0.0595
vn 0.8465 0.4960 0.1932
vn 0.9423 -0.2565 0.2151
vn 0.4942 -0.8620 0.1128
vn 0.6939 0.7025 0.1584
vn 0.9749 -0.0000 0.2225
vn 0.6939 -0.7025 0.1584
vn 0.4942 0.8620 0.1128
vn 0.9423 0.2565 0.2151
vn 0.6412 -0.7025 0.3088
vn 0.4567 0.8620 0.2199
vn 0.2410 -0.9636 0.1161
vn 0.8708 0.2565 0.4194
vn 0.7823 -0.4960 0.3767
vn 0.2410 0.9636 0.1161
vn 0.7823 0.4960 0.3767
vn 0.8708 -0.2565 0.4194
vn 0.4567 -0.8620 0.2199
vn 0.6412 0.7025 0.3088
vn 0.9010 -0.0000 0.4339
vn 0.7557 -0.2565 0.6026
vn 0.3963 -0.8620 0.3161
vn 0.5564 0.7025 0.4437
vn 0.7818 -0.0000 0.6235
vn 0.5564 -0.7025 0.4437
vn 0.3963 0.8620 0.3161
vn 0.2091 -0.9636 0.1668
vn 0.7557 0.2565 0.6026
vn 0.6789 -0.4960 0.5414
vn 0.2091 0.9636 0.1668
vn 0.6789 0.4960 0.5414
vn 0.5414 -0.4960 0.6789
vn 0.1668 0.9636 0.2091
vn 0.1668 -0.9636 0.2091
vn 0.5414 0.4960 0.6789
vn 0.6026 -0.2565 0.7557
vn 0.3161 -0.8620 0.3963
vn 0.4437 0.7025 0.5564
vn 0.6235 -0.0000 0.7818
vn 0.4437 -0.7025 0.5564
vn 0.3161 0.8620 0.3963
vn 0.6026 0.2565 0.7557
vn 0.4339 -0.0000 0.9010
vn 0.3088 -0.7025 0.6412
vn 0.2199 0.8620 0.4567
vn 0.1161 -0.9636 0.2410
vn 0.4194 0.2565 0.8708
vn 0.3767 -0.4960 0.7823
vn 0.1161 0.9636 0.2410
vn 0.3767 0.4960 0.7823
vn 0.4194 -0.2565 0.8708
vn 0.2199 -0.8620 0.4567
vn 0.3088 0.7025 0.6412
vn 0.2151 -0.2565 0.9423
vn 0.1128 -0.8620 0.4942
vn 0.1584 0.7025 0.6939
vn 0.2225 -0.0000 0.9749
vn 0.1584 -0.7025 0.6939
vn 0.1128 0.8620 0.4942
vn 0.0595 -0.9636 0.2608
vn 0.2151 0.2565 0.9423
vn 0.1932 -0.4960 0.8465
vn 0.0595 0.9636 0.2608
vn 0.1932 0.4960 0.8465
vt 0.750000 0.416667
vt 0.714286 0.500000
vt 0.750000 0.500000
vt 0.750000 0.666667
vt 0.714286 0.750000
vt 0.750000 0.750000
vt 0.750000 0.083333
vt 0.714286 0.166667
vt 0.750000 0.166667
vt 0.750000 0.916667
vt 0.714286 0.916667
vt 0.732143 1.000000
vt 0.750000 0.333333
vt 0.714286 0.416667
vt 0.750000 0.583333
vt 0.714286 0.666667
vt 0.732143 0.000000
vt 0.714286 0.083333
vt 0.750000 0.833333
vt 0.750000 0.250000
vt 0.714286 0.333333
vt 0.714286 0.583333
vt 0.714286 0.833333
vt 0.714286 0.250000
vt 0.696429 0.000000
vt 0.678571 0.083333
vt 0.678571 0.916667
vt 0.678571 0.333333
vt 0.678571 0.583333
vt 0.678571 0.833333
vt 0.678571 0.250000
vt 0.678571 0.500000
vt 0.678571 0.750000
vt 0.678571 0.166667
vt 0.696429 1.000000
vt 0.678571 0.416667
vt 0.678571 0.666667
vt 0.642857 0.750000
vt 0.642857 0.166667
vt 0.642857 0.916667
vt 0.660714 1.000000
vt 0.642857 0.416667
vt 0.642857 0.666667
vt 0.660714 0.000000
vt 0.642857 0.083333
vt 0.642857 0.333333
vt 0.642857 0.583333
vt 0.642857 0.833333
vt 0.642857 0.250000
vt 0.642857 0.500000
vt 0.607143 0.833333
vt 0.607143 0.250000
vt 0.607143 0.500000
vt 0.607143 0.750000
vt 0.607143 0.166667
vt 0.607143 0.916667
vt 0.625000 1.000000
vt 0.607143 0.416667
vt 0.607143 0.666667
vt 0.625000 0.000000
vt 0.607143 0.083333
vt 0.607143 0.333333
vt 0.607143 0.583333
vt 0.571429 0.666667
vt 0.589286 0.000000
vt 0.571429 0.083333
vt 0.571429 0.916667
vt 0.571429 0.333333
vt 0.571429 0.583333
vt 0.571429 0.833333
vt 0.571429 0.250000
vt 0.571429 0.500000
vt 0.571429 0.750000
vt 0.571429 0.166667
vt 0.589286 1.000000
vt 0.571429 0.416667
vt 0.535714 0.750000
vt 0.535714 0.166667
vt 0.535714 0.916667
vt 0.553571 1.000000
vt 0.535714 0.416667
vt 0.535714 0.666667
vt 0.553571 0.000000
vt 0.535714 0.083333
vt 0.535714 0.333333
vt 0.535714 0.583333
vt 0.535714 0.833333
vt 0.535714 0.250000
vt 0.535714 0.500000
vt 0.500000 0.583333
vt 0.500000 0.833333
vt 0.500000 0.250000
vt 0.500000 0.500000
vt 0.500000 0.750000
vt 0.500000 0.166667
vt 0.500000 0.916667
vt 0.517857 1.000000
vt 0.500000 0.416667
vt 0.500000 0.666667
vt 0.517857 0.000000
vt 0.500000 0.083333
vt 0.500000 0.333333
vt 0.464286 0.666667
vt 0.482143 0.000000
vt 0.464286 0.083333
vt 0.464286 0.916667
vt 0.464286 0.333333
vt 0.464286 0.583333
vt 0.464286 0.833333
vt 0.464286 0.250000
vt 0.464286 0.500000
vt 0.464286 0.750000
vt 0.464286 0.166667
vt 0.482143 1.000000
vt 0.464286 0.416667
vt 0.428571 0.500000
vt 0.428571 0.750000
vt 0.428571 0.166667
vt 0.428571 0.916667
vt 0.446429 1.000000
vt 0.428571 0.416667
vt 0.428571 0.666667
vt 0.446429 0.000000
vt 0.428571 0.083333
vt 0.428571 0.333333
vt 0.428571 0.583333
vt 0.428571 0.833333
vt 0.428571 0.250000
vt 0.392857 0.583333
vt 0.392857 0.833333
vt 0.392857 0.250000
vt 0.392857 0.500000
vt 0.392857 0.750000
vt 0.392857 0.166667
vt 0.392857 0.916667
vt 0.410714 1.000000
vt 0.392857 0.416667
vt 0.392857 0.666667
vt 0.410714 0.000000
vt 0.392857 0.083333
vt 0.392857 0.333333
vt 0.357143 0.416667
vt 0.357143 0.666667
vt 0.375000 0.000000
vt 0.357143 0.083333
vt 0.357143 0.916667
vt 0.357143 0.333333
vt 0.357143 0.583333
vt 0.357143 0.833333
vt 0.357143 0.250000
vt 0.357143 0.500000
vt 0.357143 0.750000
vt 0.357143 0.166667
vt 0.375000 1.000000
vt 0.321429 0.500000
vt 0.321429 0.750000
vt 0.321429 0.166667
vt 0.321429 0.916667
vt 0.339286 1.000000
vt 0.321429 0.416667
vt 0.321429 0.666667
vt 0.339286 0.000000
vt 0.321429 0.083333
vt 0.321429 0.333333
vt 0.321429 0.583333
vt 0.321429 0.833333
vt 0.321429 0.250000
vt 0.285714 0.333333
vt 0.285714 0.583333
vt 0.285714 0.833333
vt 0.285714 0.250000
vt 0.285714 0.500000
vt 0.285714 0.750000
vt 0.285714 0.166667
vt 0.285714 0.916667
vt 0.303571 1.000000
vt 0.285714 0.416667
vt 0.285714 0.666667
vt 0.303571 0.000000
vt 0.285714 0.083333
vt 0.250000 0.916667
vt 0.267857 1.000000
vt 0.250000 0.416667
vt 0.250000 0.666667
vt 0.267857 0.000000
vt 0.250000 0.083333
vt 0.250000 0.333333
vt 0.250000 0.583333
vt 0.250000 0.833333
vt 0.250000 0.250000
vt 0.250000 0.500000
vt 0.250000 0.750000
vt 0.250000 0.166667
vt 0.214286 0.250000
vt 0.214286 0.500000
vt 0.214286 0.750000
vt 0.214286 0.166667
vt 0.214286 0.916667
vt 0.232143 1.000000
vt 0.214286 0.416667
vt 0.214286 0.666667
vt 0.232143 0.000000
vt 0.214286 0.083333
vt 0.214286 0.333333
vt 0.214286 0.583333
vt 0.214286 0.833333
vt 0.178571 0.916667
vt 0.178571 0.333333
vt 0.178571 0.583333
vt 0.178571 0.833333
vt 0.178571 0.250000
vt 0.178571 0.500000
vt 0.178571 0.750000
vt 0.178571 0.166667
vt 0.196429 1.000000
vt 0.178571 0.416667
vt 0.178571 0.666667
vt 0.196429 0.000000
vt 0.178571 0.083333
vt 0.142857 0.166667
vt 0.142857 0.916667
vt 0.160714 1.000000
vt 0.142857 0.416667
vt 0.142857 0.666667
vt 0.160714 0.000000
vt 0.142857 0.083333
vt 0.142857 0.333333
vt 0.142857 0.583333
vt 0.142857 0.833333
vt 0.142857 0.250000
vt 0.142857 0.500000
vt 0.142857 0.750000
vt 0.107143 0.833333
vt 0.107143 0.250000
vt 0.107143 0.500000
vt 0.107143 0.750000
vt 0.107143 0.166667
vt 0.107143 0.916667
vt 0.125000 1.000000
vt 0.107143 0.416667
vt 0.107143 0.666667
vt 0.125000 0.000000
vt 0.107143 0.083333
vt 0.107143 0.333333
vt 0.107143 0.583333
vt 0.089286 0.000000
vt 0.071429 0.083333
vt 0.071429 0.916667
vt 0.071429 0.333333
vt 0.071429 0.583333
vt 0.071429 0.833333
vt 0.071429 0.250000
vt 0.071429 0.500000
vt 0.071429 0.750000
vt 0.071429 0.166667
vt 0.089286 1.000000
vt 0.071429 0.416667
vt 0.071429 0.666667
vt 0.035714 0.750000
vt 0.035714 0.166667
vt 0.035714 0.916667
vt 0.053571 1.000000
vt 0.035714 0.416667
vt 0.035714 0.666667
vt 0.053571 0.000000
vt 0.035714 0.083333
vt 0.035714 0.333333
vt 0.035714 0.583333
vt 0.035714 0.833333
vt 0.035714 0.250000
vt 0.035714 0.500000
vt 0.000000 0.833333
vt 0.000000 0.250000
vt 0.000000 0.500000
vt 0.000000 0.750000
vt 0.000000 0.166667
vt 0.000000 0.916667
vt 0.017857 1.000000
vt 0.000000 0.416667
vt 0.000000 0.666667
vt 0.017857 0.000000
vt 0.000000 0.083333
vt 0.000000 0.333333
vt 0.000000 0.583333
vt 1.000000 0.583333
vt 0.964286 0.666667
vt 1.000000 0.666667
vt 0.982143 0.000000
vt 0.964286 0.083333
vt 1.000000 0.083333
vt 1.000000 0.833333
vt 0.964286 0.916667
vt 1.000000 0.916667
vt 1.000000 0.250000
vt 0.964286 0.333333
vt 1.000000 0.333333
vt 1.000000 0.500000
vt 0.964286 0.583333
vt 1.000000 0.750000
vt 0.964286 0.833333
vt 1.000000 0.166667
vt 0.964286 0.250000
vt 1.000000 0.416667
vt 0.964286 0.500000
vt 0.964286 0.750000
vt 0.964286 0.166667
vt 0.982143 1.000000
vt 0.964286 0.416667
vt 0.928571 0.750000
vt 0.928571 0.166667
vt 0.928571 0.916667
vt 0.946429 1.000000
vt 0.928571 0.416667
vt 0.928571 0.666667
vt 0.946429 0.000000
vt 0.928571 0.083333
vt 0.928571 0.333333
vt 0.928571 0.583333
vt 0.928571 0.833333
vt 0.928571 0.250000
vt 0.928571 0.500000
vt 0.892857 0.583333
vt 0.892857 0.833333
vt 0.892857 0.250000
vt 0.892857 0.500000
vt 0.892857 0.750000
vt 0.892857 0.166667
vt 0.892857 0.916667
vt 0.910714 1.000000
vt 0.892857 0.416667
vt 0.892857 0.666667
vt 0.910714 0.000000
vt 0.892857 0.083333
vt 0.892857 0.333333
vt 0.857143 0.666667
vt 0.875000 0.000000
vt 0.857143 0.083333
vt 0.857143 0.916667
vt 0.857143 0.333333
vt 0.857143 0.583333
vt 0.857143 0.833333
vt 0.857143 0.250000
vt 0.857143 0.500000
vt 0.857143 0.750000
vt 0.857143 0.166667
vt 0.875000 1.000000
vt 0.857143 0.416667
vt 0.821429 0.500000
vt 0.821429 0.750000
vt 0.821429 0.166667
vt 0.821429 0.916667
vt 0.839286 1.000000
vt 0.821429 0.416667
vt 0.821429 0.666667
vt 0.839286 0.000000
vt 0.821429 0.083333
vt 0.821429 0.333333
vt 0.821429 0.583333
vt 0.821429 0.833333
vt 0.821429 0.250000
vt 0.785714 0.583333
vt 0.785714 0.833333
vt 0.785714 0.250000
vt 0.785714 0.500000
vt 0.785714 0.750000
vt 0.785714 0.166667
vt 0.785714 0.916667
vt 0.803571 1.000000
vt 0.785714 0.416667
vt 0.785714 0.666667
vt 0.803571 0.000000
vt 0.785714 0.083333
vt 0.785714 0.333333
vt 0.767857 0.000000
vt 0.767857 1.000000
s 1
f 3/1/1 10/2/2 306/3/3
f 305/4/4 7/5/5 304/6/6
f 309/7/7 14/8/8 308/9/9
f 303/10/10 5/11/11 225/12/12
f 4/13/13 11/14/14 3/1/1
f 2/15/15 8/16/16 305/4/4
f 310/17/17 15/18/18 309/7/7
f 1/19/19 5/11/11 303/10/10
f 307/20/20 12/21/21 4/13/13
f 306/3/3 9/22/22 2/15/15
f 304/6/6 6/23/23 1/19/19
f 308/9/9 13/24/24 307/20/20
f 310/25/17 26/26/25 15/18/18
f 6/23/23 16/27/26 5/11/11
f 13/24/24 23/28/27 12/21/21
f 10/2/2 20/29/28 9/22/22
f 7/5/5 17/30/29 6/23/23
f 14/8/8 24/31/30 13/24/24
f 11/14/14 21/32/31 10/2/2
f 8/16/16 18/33/32 7/5/5
f 15/18/18 25/34/33 14/8/8
f 5/11/11 16/27/26 225/35/12
f 12/21/21 22/36/34 11/14/14
f 9/22/22 19/37/35 8/16/16
f 19/37/35 29/38/36 18/33/32
f 26/26/25 36/39/37 25/34/33
f 16/27/26 27/40/38 225/41/12
f 23/28/27 33/42/39 22/36/34
f 20/29/28 30/43/40 19/37/35
f 310/44/17 37/45/41 26/26/25
f 17/30/29 27/40/38 16/27/26
f 24/31/30 34/46/42 23/28/27
f 21/32/31 31/47/43 20/29/28
f 18/33/32 28/48/44 17/30/29
f 25/34/33 35/49/45 24/31/30
f 22/36/34 32/50/46 21/32/31
f 29/38/36 39/51/47 28/48/44
f 36/39/37 46/52/48 35/49/45
f 33/42/39 43/53/49 32/50/46
f 30/43/40 40/54/50 29/38/36
f 37/45/41 47/55/51 36/39/37
f 27/40/38 38/56/52 225/57/12
f 34/46/42 44/58/53 33/42/39
f 31/47/43 41/59/54 30/43/40
f 310/60/17 48/61/55 37/45/41
f 28/48/44 38/56/52 27/40/38
f 35/49/45 45/62/56 34/46/42
f 32/50/46 42/63/57 31/47/43
f 42/63/57 52/64/58 41/59/54
f 310/65/17 59/66/59 48/61/55
f 39/51/47 49/67/60 38/56/52
f 46/52/48 56/68/61 45/62/56
f 43/53/49 53/69/62 42/63/57
f 40/54/50 50/70/63 39/51/47
f 47/55/51 57/71/64 46/52/48
f 44/58/53 54/72/65 43/53/49
f 41/59/54 51/73/66 40/54/50
f 48/61/55 58/74/67 47/55/51
f 38/56/52 49/67/60 225/75/12
f 45/62/56 55/76/68 44/58/53
f 52/64/58 62/77/69 51/73/66
f 59/66/59 69/78/70 58/74/67
f 49/67/60 60/79/71 225/80/12
f 56/68/61 66/81/72 55/76/68
f 53/69/62 63/82/73 52/64/58
f 310/83/17 70/84/74 59/66/59
f 50/70/63 60/79/71 49/67/60
f 57/71/64 67/85/75 56/68/61
f 54/72/65 64/86/76 53/69/62
f 51/73/66 61/87/77 50/70/63
f 58/74/67 68/88/78 57/71/64
f 55/76/68 65/89/79 54/72/65
f 65/89/79 75/90/80 64/86/76
f 62/77/69 72/91/81 61/87/77
f 69/78/70 79/92/82 68/88/78
f 66/81/72 76/93/83 65/89/79
f 63/82/73 73/94/84 62/77/69
f 70/84/74 80/95/85 69/78/70
f 60/79/71 71/96/86 225/97/12
f 67/85/75 77/98/87 66/81/72
f 64/86/76 74/99/88 63/82/73
f 310/100/17 81/101/89 70/84/74
f 61/87/77 71/96/86 60/79/71
f 68/88/78 78/102/90 67/85/75
f 75/90/80 85/103/91 74/99/88
f 310/104/17 92/105/92 81/101/89
f 72/91/81 82/106/93 71/96/86
f 79/92/82 89/107/94 78/102/90
f 76/93/83 86/108/95 75/90/80
f 73/94/84 83/109/96 72/91/81
f 80/95/85 90/110/97 79/92/82
f 77/98/87 87/111/98 76/93/83
f 74/99/88 84/112/99 73/94/84
f 81/101/89 91/113/100 80/95/85
f 71/96/86 82/106/93 225/114/12
f 78/102/90 88/115/101 77/98/87
f 88/115/101 98/116/102 87/111/98
f 85/103/91 95/117/103 84/112/99
f 92/105/92 102/118/104 91/113/100
f 82/106/93 93/119/105 225/120/12
f 89/107/94 99/121/106 88/115/101
f 86/108/95 96/122/107 85/103/91
f 310/123/17 103/124/108 92/105/92
f 83/109/96 93/119/105 82/106/93
f 90/110/97 100/125/109 89/107/94
f 87/111/98 97/126/110 86/108/95
f 84/112/99 94/127/111 83/109/96
f 91/113/100 101/128/112 90/110/97
f 98/116/102 108/129/113 97/126/110
f 95/117/103 105/130/114 94/127/111
f 102/118/104 112/131/115 101/128/112
f 99/121/106 109/132/116 98/116/102
f 96/122/107 106/133/117 95/117/103
f 103/124/108 113/134/118 102/118/104
f 93/119/105 104/135/119 225/136/12
f 100/125/109 110/137/120 99/121/106
f 97/126/110 107/138/121 96/122/107
f 310/139/17 114/140/122 103/124/108
f 94/127/111 104/135/119 93/119/105
f 101/128/112 111/141/123 100/125/109
f 111/141/123 121/142/124 110/137/120
f 108/129/113 118/143/125 107/138/121
f 310/144/17 125/145/126 114/140/122
f 105/130/114 115/146/127 104/135/119
f 112/131/115 122/147/128 111/141/123
f 109/132/116 119/148/129 108/129/113
f 106/133/117 116/149/130 105/130/114
f 113/134/118 123/150/131 112/131/115
f 110/137/120 120/151/132 109/132/116
f 107/138/121 117/152/133 106/133/117
f 114/140/122 124/153/134 113/134/118
f 104/135/119 115/146/127 225/154/12
f 121/142/124 131/155/135 120/151/132
f 118/143/125 128/156/136 117/152/133
f 125/145/126 135/157/137 124/153/134
f 115/146/127 126/158/138 225/159/12
f 122/147/128 132/160/139 121/142/124
f 119/148/129 129/161/140 118/143/125
f 310/162/17 136/163/141 125/145/126
f 116/149/130 126/158/138 115/146/127
f 123/150/131 133/164/142 122/147/128
f 120/151/132 130/165/143 119/148/129
f 117/152/133 127/166/144 116/149/130
f 124/153/134 134/167/145 123/150/131
f 134/167/145 144/168/146 133/164/142
f 131/155/135 141/169/147 130/165/143
f 128/156/136 138/170/148 127/166/144
f 135/157/137 145/171/149 134/167/145
f 132/160/139 142/172/150 131/155/135
f 129/161/140 139/173/151 128/156/136
f 136/163/141 146/174/152 135/157/137
f 126/158/138 137/175/153 225/176/12
f 133/164/142 143/177/154 132/160/139
f 130/165/143 140/178/155 129/161/140
f 310/179/17 147/180/156 136/163/141
f 127/166/144 137/175/153 126/158/138
f 137/175/153 148/181/157 225/182/12
f 144/168/146 154/183/158 143/177/154
f 141/169/147 151/184/159 140/178/155
f 310/185/17 158/186/160 147/180/156
f 138/170/148 148/181/157 137/175/153
f 145/171/149 155/187/161 144/168/146
f 142/172/150 152/188/162 141/169/147
f 139/173/151 149/189/163 138/170/148
f 146/174/152 156/190/164 145/171/149
f 143/177/154 153/191/165 142/172/150
f 140/178/155 150/192/166 139/173/151
f 147/180/156 157/193/167 146/174/152
f 157/193/167 167/194/168 156/190/164
f 154/183/158 164/195/169 153/191/165
f 151/184/159 161/196/170 150/192/166
f 158/186/160 168/197/171 157/193/167
f 148/181/157 159/198/172 225/199/12
f 155/187/161 165/200/173 154/183/158
f 152/188/162 162/201/174 151/184/159
f 310/202/17 169/203/175 158/186/160
f 149/189/163 159/198/172 148/181/157
f 156/190/164 166/204/176 155/187/161
f 153/191/165 163/205/177 152/188/162
f 150/192/166 160/206/178 149/189/163
f 160/206/178 170/207/179 159/198/172
f 167/194/168 177/208/180 166/204/176
f 164/195/169 174/209/181 163/205/177
f 161/196/170 171/210/182 160/206/178
f 168/197/171 178/211/183 167/194/168
f 165/200/173 175/212/184 164/195/169
f 162/201/174 172/213/185 161/196/170
f 169/203/175 179/214/186 168/197/171
f 159/198/172 170/207/179 225/215/12
f 166/204/176 176/216/187 165/200/173
f 163/205/177 173/217/188 162/201/174
f 310/218/17 180/219/189 169/203/175
f 180/219/189 190/220/190 179/214/186
f 170/207/179 181/221/191 225/222/12
f 177/208/180 187/223/192 176/216/187
f 174/209/181 184/224/193 173/217/188
f 310/225/17 191/226/194 180/219/189
f 171/210/182 181/221/191 170/207/179
f 178/211/183 188/227/195 177/208/180
f 175/212/184 185/228/196 174/209/181
f 172/213/185 182/229/197 171/210/182
f 179/214/186 189/230/198 178/211/183
f 176/216/187 186/231/199 175/212/184
f 173/217/188 183/232/200 172/213/185
f 183/232/200 193/233/201 182/229/197
f 190/220/190 200/234/202 189/230/198
f 187/223/192 197/235/203 186/231/199
f 184/224/193 194/236/204 183/232/200
f 191/226/194 201/237/205 190/220/190
f 181/221/191 192/238/206 225/239/12
f 188/227/195 198/240/207 187/223/192
f 185/228/196 195/241/208 184/224/193
f 310/242/17 202/243/209 191/226/194
f 182/229/197 192/238/206 181/221/191
f 189/230/198 199/244/210 188/227/195
f 186/231/199 196/245/211 185/228/196
f 310/246/17 213/247/212 202/243/209
f 193/233/201 203/248/213 192/238/206
f 200/234/202 210/249/214 199/244/210
f 197/235/203 207/250/215 196/245/211
f 194/236/204 204/251/216 193/233/201
f 201/237/205 211/252/217 200/234/202
f 198/240/207 208/253/218 197/235/203
f 195/241/208 205/254/219 194/236/204
f 202/243/209 212/255/220 201/237/205
f 192/238/206 203/248/213 225/256/12
f 199/244/210 209/257/221 198/240/207
f 196/245/211 206/258/222 195/241/208
f 206/258/222 216/259/223 205/254/219
f 213/247/212 223/260/224 212/255/220
f 203/248/213 214/261/225 225/262/12
f 210/249/214 220/263/226 209/257/221
f 207/250/215 217/264/227 206/258/222
f 310/265/17 224/266/228 213/247/212
f 204/251/216 214/261/225 203/248/213
f 211/252/217 221/267/229 210/249/214
f 208/253/218 218/268/230 207/250/215
f 205/254/219 215/269/231 204/251/216
f 212/255/220 222/270/232 211/252/217
f 209/257/221 219/271/233 208/253/218
f 216/259/223 227/272/234 215/269/231
f 223/260/224 234/273/235 222/270/232
f 220/263/226 231/274/236 219/271/233
f 217/264/227 228/275/237 216/259/223
f 224/266/228 235/276/238 223/260/224
f 214/261/225 226/277/239 225/278/12
f 221/267/229 232/279/240 220/263/226
f 218/268/230 229/280/241 217/264/227
f 310/281/17 236/282/242 224/266/228
f 215/269/231 226/277/239 214/261/225
f 222/270/232 233/283/243 221/267/229
f 219/271/233 230/284/244 218/268/230
f 230/285/244 240/286/245 229/287/241
f 310/288/17 247/289/246 236/290/242
f 227/291/234 237/292/247 226/293/239
f 234/294/235 244/295/248 233/296/243
f 231/297/236 241/298/249 230/285/244
f 228/299/237 238/300/250 227/291/234
f 235/301/238 245/302/251 234/294/235
f 232/303/240 242/304/252 231/297/236
f 229/287/241 239/305/253 228/299/237
f 236/290/242 246/306/254 235/301/238
f 226/293/239 237/292/247 225/307/12
f 233/296/243 243/308/255 232/303/240
f 240/286/245 250/309/256 239/305/253
f 247/289/246 257/310/257 246/306/254
f 237/292/247 248/311/258 225/312/12
f 244/295/248 254/313/259 243/308/255
f 241/298/249 251/314/260 240/286/245
f 310/315/17 258/316/261 247/289/246
f 238/300/250 248/311/258 237/292/247
f 245/302/251 255/317/262 244/295/248
f 242/304/252 252/318/263 241/298/249
f 239/305/253 249/319/264 238/300/250
f 246/306/254 256/320/265 245/302/251
f 243/308/255 253/321/266 242/304/252
f 253/321/266 263/322/267 252/318/263
f 250/309/256 260/323/268 249/319/264
f 257/310/257 267/324/269 256/320/265
f 254/313/259 264/325/270 253/321/266
f 251/314/260 261/326/271 250/309/256
f 258/316/261 268/327/272 257/310/257
f 248/311/258 259/328/273 225/329/12
f 255/317/262 265/330/274 254/313/259
f 252/318/263 262/331/275 251/314/260
f 310/332/17 269/333/276 258/316/261
f 249/319/264 259/328/273 248/311/258
f 256/320/265 266/334/277 255/317/262
f 263/322/267 273/335/278 262/331/275
f 310/336/17 280/337/279 269/333/276
f 260/323/268 270/338/280 259/328/273
f 267/324/269 277/339/281 266/334/277
f 264/325/270 274/340/282 263/322/267
f 261/326/271 271/341/283 260/323/268
f 268/327/272 278/342/284 267/324/269
f 265/330/274 275/343/285 264/325/270
f 262/331/275 272/344/286 261/326/271
f 269/333/276 279/345/287 268/327/272
f 259/328/273 270/338/280 225/346/12
f 266/334/277 276/347/288 265/330/274
f 276/347/288 286/348/289 275/343/285
f 273/335/278 283/349/290 272/344/286
f 280/337/279 290/350/291 279/345/287
f 270/338/280 281/351/292 225/352/12
f 277/339/281 287/353/293 276/347/288
f 274/340/282 284/354/294 273/335/278
f 310/355/17 291/356/295 280/337/279
f 271/341/283 281/351/292 270/338/280
f 278/342/284 288/357/296 277/339/281
f 275/343/285 285/358/297 274/340/282
f 272/344/286 282/359/298 271/341/283
f 279/345/287 289/360/299 278/342/284
f 286/348/289 296/361/300 285/358/297
f 283/349/290 293/362/301 282/359/298
f 290/350/291 300/363/302 289/360/299
f 287/353/293 297/364/303 286/348/289
f 284/354/294 294/365/304 283/349/290
f 291/356/295 301/366/305 290/350/291
f 281/351/292 292/367/306 225/368/12
f 288/357/296 298/369/307 287/353/293
f 285/358/297 295/370/308 284/354/294
f 310/371/17 302/372/309 291/356/295
f 282/359/298 292/367/306 281/351/292
f 289/360/299 299/373/310 288/357/296
f 299/373/310 3/1/1 298/369/307
f 296/361/300 305/4/4 295/370/308
f 310/374/17 309/7/7 302/372/309
f 293/362/301 303/10/10 292/367/306
f 300/363/302 4/13/13 299/373/310
f 297/364/303 2/15/15 296/361/300
f 294/365/304 1/19/19 293/362/301
f 301/366/305 307/20/20 300/363/302
f 298/369/307 306/3/3 297/364/303
f 295/370/308 304/6/6 294/365/304
f 302/372/309 308/9/9 301/366/305
f 292/367/306 303/10/10 225/375/12
f 3/1/1 11/14/14 10/2/2
f 305/4/4 8/16/16 7/5/5
f 309/7/7 15/18/18 14/8/8
f 4/13/13 12/21/21 11/14/14
f 2/15/15 9/22/22 8/16/16
f 1/19/19 6/23/23 5/11/11
f 307/20/20 13/24/24 12/21/21
f 306/3/3 10/2/2 9/22/22
f 304/6/6 7/5/5 6/23/23
f 308/9/9 14/8/8 13/24/24
f 6/23/23 17/30/29 16/27/26
f 13/24/24 24/31/30 23/28/27
f 10/2/2 21/32/31 20/29/28
f 7/5/5 18/33/32 17/30/29
f 14/8/8 25/34/33 24/31/30
f 11/14/14 22/36/34 21/32/31
f 8/16/16 19/37/35 18/33/32
f 15/18/18 26/26/25 25/34/33
f 12/21/21 23/28/27 22/36/34
f 9/22/22 20/29/28 19/37/35
f 19/37/35 30/43/40 29/38/36
f 26/26/25 37/45/41 36/39/37
f 23/28/27 34/46/42 33/42/39
f 20/29/28 31/47/43 30/43/40
f 17/30/29 28/48/44 27/40/38
f 24/31/30 35/49/45 34/46/42
f 21/32/31 32/50/46 31/47/43
f 18/33/32 29/38/36 28/48/44
f 25/34/33 36/39/37 35/49/45
f 22/36/34 33/42/39 32/50/46
f 29/38/36 40/54/50 39/51/47
f 36/39/37 47/55/51 46/52/48
f 33/42/39 44/58/53 43/53/49
f 30/43/40 41/59/54 40/54/50
f 37/45/41 48/61/55 47/55/51
f 34/46/42 45/62/56 44/58/53
f 31/47/43 42/63/57 41/59/54
f 28/48/44 39/51/47 38/56/52
f 35/49/45 46/52/48 45/62/56
f 32/50/46 43/53/49 42/63/57
f 42/63/57 53/69/62 52/64/58
f 39/51/47 50/70/63 49/67/60
f 46/52/48 57/71/64 56/68/61
f 43/53/49 54/72/65 53/69/62
f 40/54/50 51/73/66 50/70/63
f 47/55/51 58/74/67 57/71/64
f 44/58/53 55/76/68 54/72/65
f 41/59/54 52/64/58 51/73/66
f 48/61/55 59/66/59 58/74/67
f 45/62/56 56/68/61 55/76/68
f 52/64/58 63/82/73 62/77/69
f 59/66/59 70/84/74 69/78/70
f 56/68/61 67/85/75 66/81/72
f 53/69/62 64/86/76 63/82/73
f 50/70/63 61/87/77 60/79/71
f 57/71/64 68/88/78 67/85/75
f 54/72/65 65/89/79 64/86/76
f 51/73/66 62/77/69 61/87/77
f 58/74/67 69/78/70 68/88/78
f 55/76/68 66/81/72 65/89/79
f 65/89/79 76/93/83 75/90/80
f 62/77/69 73/94/84 72/91/81
f 69/78/70 80/95/85 79/92/82
f 66/81/72 77/98/87 76/93/83
f 63/82/73 74/99/88 73/94/84
f 70/84/74 81/101/89 80/95/85
f 67/85/75 78/102/90 77/98/87
f 64/86/76 75/90/80 74/99/88
f 61/87/77 72/91/81 71/96/86
f 68/88/78 79/92/82 78/102/90
f 75/90/80 86/108/95 85/103/91
f 72/91/81 83/109/96 82/106/93
f 79/92/82 90/110/97 89/107/94
f 76/93/83 87/111/98 86/108/95
f 73/94/84 84/112/99 83/109/96
f 80/95/85 91/113/100 90/110/97
f 77/98/87 88/115/101 87/111/98
f 74/99/88 85/103/91 84/112/99
f 81/101/89 92/105/92 91/113/100
f 78/102/90 89/107/94 88/115/101
f 88/115/101 99/121/106 98/116/102
f 85/103/91 96/122/107 95/117/103
f 92/105/92 103/124/108 102/118/104
f 89/107/94 100/125/109 99/121/106
f 86/108/95 97/126/110 96/122/107
f 83/109/96 94/127/111 93/119/105
f 90/110/97 101/128/112 100/125/109
f 87/111/98 98/116/102 97/126/110
f 84/112/99 95/117/103 94/127/111
f 91/113/100 102/118/104 101/128/112
f 98/116/102 109/132/116 108/129/113
f 95/117/103 106/133/117 105/130/114
f 102/118/104 113/134/118 112/131/115
f 99/121/106 110/137/120 109/132/116
f 96/122/107 107/138/121 106/133/117
f 103/124/108 114/140/122 113/134/118
f 100/125/109 111/141/123 110/137/120
f 97/126/110 108/129/113 107/138/121
f 94/127/111 105/130/114 104/135/119
f 101/128/112 112/131/115 111/141/123
f 111/141/123 122/147/128 121/142/124
f 108/129/113 119/148/129 118/143/125
f 105/130/114 116/149/130 115/146/127
f 112/131/115 123/150/131 122/147/128
f 109/132/116 120/151/132 119/148/129
f 106/133/117 117/152/133 116/149/130
f 113/134/118 124/153/134 123/150/131
f 110/137/120 121/142/124 120/151/132
f 107/138/121 118/143/125 117/152/133
f 114/140/122 125/145/126 124/153/134
f 121/142/124 132/160/139 131/155/135
f 118/143/125 129/161/140 128/156/136
f 125/145/126 136/163/141 135/157/137
f 122/147/128 133/164/142 132/160/139
f 119/148/129 130/165/143 129/161/140
f 116/149/130 127/166/144 126/158/138
f 123/150/131 134/167/145 133/164/142
f 120/151/132 131/155/135 130/165/143
f 117/152/133 128/156/136 127/166/144
f 124/153/134 135/157/137 134/167/145
f 134/167/145 145/171/149 144/168/146
f 131/155/135 142/172/150 141/169/147
f 128/156/136 139/173/151 138/170/148
f 135/157/137 146/174/152 145/171/149
f 132/160/139 143/177/154 142/172/150
f 129/161/140 140/178/155 139/173/151
f 136/163/141 147/180/156 146/174/152
f 133/164/142 144/168/146 143/177/154
f 130/165/143 141/169/147 140/178/155
f 127/166/144 138/170/148 137/175/153
f 144/168/146 155/187/161 154/183/158
f 141/169/147 152/188/162 151/184/159
f 138/170/148 149/189/163 148/181/157
f 145/171/149 156/190/164 155/187/161
f 142/172/150 153/191/165 152/188/162
f 139/173/151 150/192/166 149/189/163
f 146/174/152 157/193/167 156/190/164
f 143/177/154 154/183/158 153/191/165
f 140/178/155 151/184/159 150/192/166
f 147/180/156 158/186/160 157/193/167
f 157/193/167 168/197/171 167/194/168
f 154/183/158 165/200/173 164/195/169
f 151/184/159 162/201/174 161/196/170
f 158/186/160 169/203/175 168/197/171
f 155/187/161 166/204/176 165/200/173
f 152/188/162 163/205/177 162/201/174
f 149/189/163 160/206/178 159/198/172
f 156/190/164 167/194/168 166/204/176
f 153/191/165 164/195/169 163/205/177
f 150/192/166 161/196/170 160/206/178
f 160/206/178 171/210/182 170/207/179
f 167/194/168 178/211/183 177/208/180
f 164/195/169 175/212/184 174/209/181
f 161/196/170 172/213/185 171/210/182
f 168/197/171 179/214/186 178/211/183
f 165/200/173 176/216/187 175/212/184
f 162/201/174 173/217/188 172/213/185
f 169/203/175 180/219/189 179/214/186
f 166/204/176 177/208/180 176/216/187
f 163/205/177 174/209/181 173/217/188
f 180/219/189 191/226/194 190/220/190
f 177/208/180 188/227/195 187/223/192
f 174/209/181 185/228/196 184/224/193
f 171/210/182 182/229/197 181/221/191
f 178/211/183 189/230/198 188/227/195
f 175/212/184 186/231/199 185/228/196
f 172/213/185 183/232/200 182/229/197
f 179/214/186 190/220/190 189/230/198
f 176/216/187 187/223/192 186/231/199
f 173/217/188 184/224/193 183/232/200
f 183/232/200 194/236/204 193/233/201
f 190/220/190 201/237/205 200/234/202
f 187/223/192 198/240/207 197/235/203
f 184/224/193 195/241/208 194/236/204
f 191/226/194 202/243/209 201/237/205
f 188/227/195 199/244/210 198/240/207
f 185/228/196 196/245/211 195/241/208
f 182/229/197 193/233/201 192/238/206
f 189/230/198 200/234/202 199/244/210
f 186/231/199 197/235/203 196/245/211
f 193/233/201 204/251/216 203/248/213
f 200/234/202 211/252/217 210/249/214
f 197/235/203 208/253/218 207/250/215
f 194/236/204 205/254/219 204/251/216
f 201/237/205 212/255/220 211/252/217
f 198/240/207 209/257/221 208/253/218
f 195/241/208 206/258/222 205/254/219
f 202/243/209 213/247/212 212/255/220
f 199/244/210 210/249/214 209/257/221
f 196/245/211 207/250/215 206/258/222
f 206/258/222 217/264/227 216/259/223
f 213/247/212 224/266/228 223/260/224
f 210/249/214 221/267/229 220/263/226
f 207/250/215 218/268/230 217/264/227
f 204/251/216 215/269/231 214/261/225
f 211/252/217 222/270/232 221/267/229
f 208/253/218 219/271/233 218/268/230
f 205/254/219 216/259/223 215/269/231
f 212/255/220 223/260/224 222/270/232
f 209/257/221 220/263/226 219/271/233
f 216/259/223 228/275/237 227/272/234
f 223/260/224 235/276/238 234/273/235
f 220/263/226 232/279/240 231/274/236
f 217/264/227 229/280/241 228/275/237
f 224/266/228 236/282/242 235/276/238
f 221/267/229 233/283/243 232/279/240
f 218/268/230 230/284/244 229/280/241
f 215/269/231 227/272/234 226/277/239
f 222/270/232 234/273/235 233/283/243
f 219/271/233 231/274/236 230/284/244
f 230/285/244 241/298/249 240/286/245
f 227/291/234 238/300/250 237/292/247
f 234/294/235 245/302/251 244/295/248
f 231/297/236 242/304/252 241/298/249
f 228/299/237 239/305/253 238/300/250
f 235/301/238 246/306/254 245/302/251
f 232/303/240 243/308/255 242/304/252
f 229/287/241 240/286/245 239/305/253
f 236/290/242 247/289/246 246/306/254
f 233/296/243 244/295/248 243/308/255
f 240/286/245 251/314/260 250/309/256
f 247/289/246 258/316/261 257/310/257
f 244/295/248 255/317/262 254/313/259
f 241/298/249 252/318/263 251/314/260
f 238/300/250 249/319/264 248/311/258
f 245/302/251 256/320/265 255/317/262
f 242/304/252 253/321/266 252/318/263
f 239/305/253 250/309/256 249/319/264
f 246/306/254 257/310/257 256/320/265
f 243/308/255 254/313/259 253/321/266
f 253/321/266 264/325/270 263/322/267
f 250/309/256 261/326/271 260/323/268
f 257/310/257 268/327/272 267/324/269
f 254/313/259 265/330/274 264/325/270
f 251/314/260 262/331/275 261/326/271
f 258/316/261 269/333/276 268/327/272
f 255/317/262 266/334/277 265/330/274
f 252/318/263 263/322/267 262/331/275
f 249/319/264 260/323/268 259/328/273
f 256/320/265 267/324/269 266/334/277
f 263/322/267 274/340/282 273/335/278
f 260/323/268 271/341/283 270/338/280
f 267/324/269 278/342/284 277/339/281
f 264/325/270 275/343/285 274/340/282
f 261/326/271 272/344/286 271/341/283
f 268/327/272 279/345/287 278/342/284
f 265/330/274 276/347/288 275/343/285
f 262/331/275 273/335/278 272/344/286
f 269/333/276 280/337/279 279/345/287
f 266/334/277 277/339/281 276/347/288
f 276/347/288 287/353/293 286/348/289
f 273/335/278 284/354/294 283/349/290
f 280/337/279 291/356/295 290/350/291
f 277/339/281 288/357/296 287/353/293
f 274/340/282 285/358/297 284/354/294
f 271/341/283 282/359/298 281/351/292
f 278/342/284 289/360/299 288/357/296
f 275/343/285 286/348/289 285/358/297
f 272/344/286 283/349/290 282/359/298
f 279/345/287 290/350/291 289/360/299
f 286/348/289 297/364/303 296/361/300
f 283/349/290 294/365/304 293/362/301
f 290/350/291 301/366/305 300/363/302
f 287/353/293 298/369/307 297/364/303
f 284/354/294 295/370/308 294/365/304
f 291/356/295 302/372/309 301/366/305
f 288/357/296 299/373/310 298/369/307
f 285/358/297 296/361/300 295/370/308
f 282/359/298 293/362/301 292/367/306
f 289/360/299 300/363/302 299/373/310
f 299/373/310 4/13/13 3/1/1
f 296/361/300 2/15/15 305/4/4
f 293/362/301 1/19/19 303/10/10
f 300/363/302 307/20/20 4/13/13
f 297/364/303 306/3/3 2/15/15
f 294/365/304 304/6/6 1/19/19
f 301/366/305 308/9/9 307/20/20
f 298/369/307 3/1/1 306/3/3
f 295/370/308 305/4/4 304/6/6
f 302/372/309 309/7/7 308/9/9
