# Blender 4.0.1
# www.blender.org
o Sphere
v 0.000000 0.831470 -0.555570
v 0.000000 0.555570 -0.831470
v 0.000000 0.195090 -0.980785
v 0.000000 0.000000 -1.000000
v 0.000000 -0.195090 -0.980785
v 0.000000 -0.555570 -0.831470
v 0.038060 0.980785 -0.191342
v 0.074658 0.923880 -0.375330
v 0.108386 0.831470 -0.544895
v 0.137950 0.707107 -0.693520
v 0.162212 0.555570 -0.815493
v 0.180240 0.382683 -0.906127
v 0.191342 0.195090 -0.961940
v 0.195090 0.000000 -0.980785
v 0.191342 -0.195090 -0.961940
v 0.180240 -0.382683 -0.906127
v 0.162212 -0.555570 -0.815493
v 0.137950 -0.707107 -0.693520
v 0.108386 -0.831470 -0.544895
v 0.074658 -0.923880 -0.375330
v 0.038060 -0.980785 -0.191342
v 0.074658 0.980785 -0.180240
v 0.146447 0.923880 -0.353553
v 0.212608 0.831470 -0.513280
v 0.270598 0.707107 -0.653281
v 0.318190 0.555570 -0.768178
v 0.353553 0.382683 -0.853553
v 0.375330 0.195090 -0.906127
v 0.382683 0.000000 -0.923879
v 0.375330 -0.195090 -0.906127
v 0.353553 -0.382683 -0.853553
v 0.318190 -0.555570 -0.768178
v 0.270598 -0.707107 -0.653281
v 0.212608 -0.831470 -0.513280
v 0.146447 -0.923880 -0.353553
v 0.074658 -0.980785 -0.180240
v 0.108386 0.980785 -0.162212
v 0.212608 0.923880 -0.318190
v 0.308658 0.831470 -0.461940
v 0.392847 0.707107 -0.587938
v 0.461940 0.555570 -0.691342
v 0.513280 0.382683 -0.768178
v 0.544895 0.195090 -0.815493
v 0.555570 0.000000 -0.831469
v 0.544895 -0.195090 -0.815493
v 0.513280 -0.382683 -0.768178
v 0.461940 -0.555570 -0.691342
v 0.392847 -0.707107 -0.587938
v 0.308658 -0.831470 -0.461940
v 0.212608 -0.923880 -0.318190
v 0.108386 -0.980785 -0.162212
v 0.137950 0.980785 -0.137950
v 0.270598 0.923880 -0.270598
v 0.392847 0.831470 -0.392847
v 0.500000 0.707107 -0.500000
v 0.587938 0.555570 -0.587938
v 0.653281 0.382683 -0.653281
v 0.693520 0.195090 -0.693520
v 0.707107 0.000000 -0.707107
v 0.693520 -0.195090 -0.693520
v 0.653281 -0.382683 -0.653281
v 0.587938 -0.555570 -0.587938
v 0.500000 -0.707107 -0.500000
v 0.392847 -0.831470 -0.392847
v 0.270598 -0.923880 -0.270598
v 0.137950 -0.980785 -0.137950
v 0.162212 0.980785 -0.108386
v 0.318190 0.923880 -0.212608
v 0.461940 0.831470 -0.308658
v 0.587938 0.707107 -0.392847
v 0.691342 0.555570 -0.461940
v 0.768178 0.382683 -0.513280
v 0.815493 0.195090 -0.544895
v 0.831470 0.000000 -0.555570
v 0.815493 -0.195090 -0.544895
v 0.768178 -0.382683 -0.513280
v 0.691342 -0.555570 -0.461940
v 0.587938 -0.707107 -0.392847
v 0.461940 -0.831470 -0.308658
v 0.318190 -0.923880 -0.212608
v 0.162212 -0.980785 -0.108386
v 0.000000 1.000000 0.000000
v 0.180240 0.980785 -0.074658
v 0.353553 0.923880 -0.146447
v 0.513280 0.831470 -0.212607
v 0.653281 0.707107 -0.270598
v 0.768178 0.555570 -0.318190
v 0.853553 0.382683 -0.353553
v 0.906127 0.195090 -0.375330
v 0.923879 0.000000 -0.382683
v 0.906127 -0.195090 -0.375330
v 0.853553 -0.382683 -0.353553
v 0.768178 -0.555570 -0.318190
v 0.653281 -0.707107 -0.270598
v 0.513280 -0.831470 -0.212607
v 0.353553 -0.923880 -0.146447
v 0.180240 -0.980785 -0.074658
v 0.191342 0.980785 -0.038060
v 0.375330 0.923880 -0.074658
v 0.544895 0.831470 -0.108386
v 0.693520 0.707107 -0.137950
v 0.815493 0.555570 -0.162212
v 0.906127 0.382683 -0.180240
v 0.961940 0.195090 -0.191342
v 0.980785 0.000000 -0.195090
v 0.961940 -0.195090 -0.191342
v 0.906127 -0.382683 -0.180240
v 0.815493 -0.555570 -0.162212
v 0.693520 -0.707107 -0.137950
v 0.544895 -0.831470 -0.108386
v 0.375330 -0.923880 -0.074658
v 0.191342 -0.980785 -0.038060
v 0.195090 0.980785 0.000000
v 0.382683 0.923880 0.000000
v 0.555570 0.831470 0.000000
v 0.707107 0.707107 -0.000000
v 0.831469 0.555570 0.000000
v 0.923879 0.382683 -0.000000
v 0.980785 0.195090 0.000000
v 1.000000 0.000000 0.000000
v 0.980785 -0.195090 0.000000
v 0.923879 -0.382683 -0.000000
v 0.831469 -0.555570 0.000000
v 0.707107 -0.707107 -0.000000
v 0.555570 -0.831470 0.000000
v 0.382683 -0.923880 0.000000
v 0.195090 -0.980785 0.000000
v 0.191342 0.980785 0.038060
v 0.375330 0.923880 0.074658
v 0.544895 0.831470 0.108386
v 0.693520 0.707107 0.137950
v 0.815493 0.555570 0.162212
v 0.906127 0.382683 0.180240
v 0.961940 0.195090 0.191342
v 0.980785 0.000000 0.195090
v 0.961940 -0.195090 0.191342
v 0.906127 -0.382683 0.180240
v 0.815493 -0.555570 0.162212
v 0.693520 -0.707107 0.137950
v 0.544895 -0.831470 0.108386
v 0.375330 -0.923880 0.074658
v 0.191342 -0.980785 0.038060
v 0.180240 0.980785 0.074658
v 0.353553 0.923880 0.146447
v 0.513280 0.831470 0.212608
v 0.653281 0.707107 0.270598
v 0.768178 0.555570 0.318190
v 0.853553 0.382683 0.353553
v 0.906127 0.195090 0.375330
v 0.923879 0.000000 0.382683
v 0.906127 -0.195090 0.375330
v 0.853553 -0.382683 0.353553
v 0.768178 -0.555570 0.318190
v 0.653281 -0.707107 0.270598
v 0.513280 -0.831470 0.212608
v 0.353553 -0.923880 0.146447
v 0.180240 -0.980785 0.074658
v 0.162212 0.980785 0.108386
v 0.318190 0.923880 0.212608
v 0.461940 0.831470 0.308658
v 0.587938 0.707107 0.392847
v 0.691341 0.555570 0.461940
v 0.768178 0.382683 0.513280
v 0.815493 0.195090 0.544895
v 0.831469 0.000000 0.555570
v 0.815493 -0.195090 0.544895
v 0.768178 -0.382683 0.513280
v 0.691341 -0.555570 0.461940
v 0.587938 -0.707107 0.392847
v 0.461940 -0.831470 0.308658
v 0.318190 -0.923880 0.212608
v 0.162212 -0.980785 0.108386
v 0.137950 0.980785 0.137950
v 0.270598 0.923880 0.270598
v 0.392847 0.831470 0.392847
v 0.500000 0.707107 0.500000
v 0.587938 0.555570 0.587938
v 0.653281 0.382683 0.653281
v 0.693520 0.195090 0.693520
v 0.707106 0.000000 0.707107
v 0.693520 -0.195090 0.693520
v 0.653281 -0.382683 0.653281
v 0.587938 -0.555570 0.587938
v 0.500000 -0.707107 0.500000
v 0.392847 -0.831470 0.392847
v 0.270598 -0.923880 0.270598
v 0.137950 -0.980785 0.137950
v 0.108386 0.980785 0.162212
v 0.212607 0.923880 0.318190
v 0.308658 0.831470 0.461940
v 0.392847 0.707107 0.587938
v 0.461940 0.555570 0.691342
v 0.513280 0.382683 0.768178
v 0.544895 0.195090 0.815493
v 0.555570 0.000000 0.831469
v 0.544895 -0.195090 0.815493
v 0.513280 -0.382683 0.768178
v 0.461940 -0.555570 0.691342
v 0.392847 -0.707107 0.587938
v 0.308658 -0.831470 0.461940
v 0.212607 -0.923880 0.318190
v 0.108386 -0.980785 0.162212
v 0.074658 0.980785 0.180240
v 0.146447 0.923880 0.353553
v 0.212607 0.831470 0.513280
v 0.270598 0.707107 0.653281
v 0.318189 0.555570 0.768178
v 0.353553 0.382683 0.853553
v 0.375330 0.195090 0.906127
v 0.382683 0.000000 0.923879
v 0.375330 -0.195090 0.906127
v 0.353553 -0.382683 0.853553
v 0.318189 -0.555570 0.768178
v 0.270598 -0.707107 0.653281
v 0.212607 -0.831470 0.513280
v 0.146447 -0.923880 0.353553
v 0.074658 -0.980785 0.180240
v 0.038060 0.980785 0.191342
v 0.074658 0.923880 0.375330
v 0.108386 0.831470 0.544895
v 0.137950 0.707107 0.693520
v 0.162212 0.555570 0.815493
v 0.180240 0.382683 0.906127
v 0.191342 0.195090 0.961939
v 0.195090 0.000000 0.980785
v 0.191342 -0.195090 0.961939
v 0.180240 -0.382683 0.906127
v 0.162212 -0.555570 0.815493
v 0.137950 -0.707107 0.693520
v 0.108386 -0.831470 0.544895
v 0.074658 -0.923880 0.375330
v 0.038060 -0.980785 0.191342
v -0.000000 0.980785 0.195090
v -0.000000 0.923880 0.382683
v -0.000000 0.831470 0.555570
v -0.000000 0.707107 0.707107
v -0.000000 0.555570 0.831469
v 0.000000 0.382683 0.923879
v -0.000000 0.195090 0.980785
v -0.000000 0.000000 0.999999
v -0.000000 -0.195090 0.980785
v 0.000000 -0.382683 0.923879
v -0.000000 -0.555570 0.831469
v -0.000000 -0.707107 0.707107
v -0.000000 -0.831470 0.555570
v -0.000000 -0.923880 0.382683
v -0.000000 -0.980785 0.195090
v -0.038060 0.980785 0.191342
v -0.074658 0.923880 0.375330
v -0.108386 0.831470 0.544895
v -0.137950 0.707107 0.693520
v -0.162212 0.555570 0.815493
v -0.180240 0.382683 0.906127
v -0.191342 0.195090 0.961939
v -0.195091 0.000000 0.980785
v -0.191342 -0.195090 0.961939
v -0.180240 -0.382683 0.906127
v -0.162212 -0.555570 0.815493
v -0.137950 -0.707107 0.693520
v -0.108386 -0.831470 0.544895
v -0.074658 -0.923880 0.375330
v -0.038060 -0.980785 0.191342
v -0.074658 0.980785 0.180240
v -0.146447 0.923880 0.353553
v -0.212608 0.831470 0.513280
v -0.270598 0.707107 0.653281
v -0.318190 0.555570 0.768177
v -0.353553 0.382683 0.853553
v -0.375330 0.195090 0.906127
v -0.382683 0.000000 0.923879
v -0.375330 -0.195090 0.906127
v -0.353553 -0.382683 0.853553
v -0.318190 -0.555570 0.768177
v -0.270598 -0.707107 0.653281
v -0.212608 -0.831470 0.513280
v -0.146447 -0.923880 0.353553
v -0.074658 -0.980785 0.180240
v -0.108386 0.980785 0.162212
v -0.212608 0.923880 0.318190
v -0.308658 0.831470 0.461939
v -0.392847 0.707107 0.587938
v -0.461940 0.555570 0.691341
v -0.513280 0.382683 0.768178
v -0.544895 0.195090 0.815493
v -0.555570 0.000000 0.831469
v -0.544895 -0.195090 0.815493
v -0.513280 -0.382683 0.768178
v -0.461940 -0.555570 0.691341
v -0.392847 -0.707107 0.587938
v -0.308658 -0.831470 0.461939
v -0.212608 -0.923880 0.318190
v -0.108386 -0.980785 0.162212
v -0.137950 0.980785 0.137950
v -0.270598 0.923880 0.270598
v -0.392847 0.831470 0.392847
v -0.500000 0.707107 0.500000
v -0.587938 0.555570 0.587937
v -0.653281 0.382683 0.653281
v -0.693520 0.195090 0.693520
v -0.707106 0.000000 0.707106
v -0.693520 -0.195090 0.693520
v -0.653281 -0.382683 0.653281
v -0.587938 -0.555570 0.587937
v -0.500000 -0.707107 0.500000
v -0.392847 -0.831470 0.392847
v -0.270598 -0.923880 0.270598
v -0.137950 -0.980785 0.137950
v 0.000000 -1.000000 0.000000
v -0.162212 0.980785 0.108386
v -0.318190 0.923880 0.212607
v -0.461940 0.831470 0.308658
v -0.587938 0.707107 0.392847
v -0.691341 0.555570 0.461939
v -0.768177 0.382683 0.513280
v -0.815493 0.195090 0.544895
v -0.831469 0.000000 0.555569
v -0.815493 -0.195090 0.544895
v -0.768177 -0.382683 0.513280
v -0.691341 -0.555570 0.461939
v -0.587938 -0.707107 0.392847
v -0.461940 -0.831470 0.308658
v -0.318190 -0.923880 0.212607
v -0.162212 -0.980785 0.108386
v -0.180240 0.980785 0.074658
v -0.353553 0.923880 0.146447
v -0.513280 0.831470 0.212607
v -0.653281 0.707107 0.270598
v -0.768177 0.555570 0.318189
v -0.853553 0.382683 0.353553
v -0.906127 0.195090 0.375330
v -0.923879 0.000000 0.382683
v -0.906127 -0.195090 0.375330
v -0.853553 -0.382683 0.353553
v -0.768177 -0.555570 0.318189
v -0.653281 -0.707107 0.270598
v -0.513280 -0.831470 0.212607
v -0.353553 -0.923880 0.146447
v -0.180240 -0.980785 0.074658
v -0.191342 0.980785 0.038060
v -0.375330 0.923880 0.074658
v -0.544895 0.831470 0.108386
v -0.693520 0.707107 0.137950
v -0.815493 0.555570 0.162211
v -0.906127 0.382683 0.180240
v -0.961939 0.195090 0.191341
v -0.980784 0.000000 0.195090
v -0.961939 -0.195090 0.191341
v -0.906127 -0.382683 0.180240
v -0.815493 -0.555570 0.162211
v -0.693520 -0.707107 0.137950
v -0.544895 -0.831470 0.108386
v -0.375330 -0.923880 0.074658
v -0.191342 -0.980785 0.038060
v -0.195090 0.980785 -0.000000
v -0.382683 0.923880 -0.000000
v -0.555570 0.831470 -0.000000
v -0.707107 0.707107 -0.000000
v -0.831469 0.555570 -0.000000
v -0.923879 0.382683 -0.000000
v -0.980785 0.195090 -0.000000
v -0.999999 0.000000 -0.000000
v -0.980785 -0.195090 -0.000000
v -0.923879 -0.382683 -0.000000
v -0.831469 -0.555570 -0.000000
v -0.707107 -0.707107 -0.000000
v -0.555570 -0.831470 -0.000000
v -0.382683 -0.923880 -0.000000
v -0.195090 -0.980785 -0.000000
v -0.191342 0.980785 -0.038060
v -0.375330 0.923880 -0.074658
v -0.544895 0.831470 -0.108386
v -0.693520 0.707107 -0.137950
v -0.815493 0.555570 -0.162212
v -0.906127 0.382683 -0.180240
v -0.961939 0.195090 -0.191342
v -0.980784 0.000000 -0.195091
v -0.961939 -0.195090 -0.191342
v -0.906127 -0.382683 -0.180240
v -0.815493 -0.555570 -0.162212
v -0.693520 -0.707107 -0.137950
v -0.544895 -0.831470 -0.108386
v -0.375330 -0.923880 -0.074658
v -0.191342 -0.980785 -0.038060
v -0.180240 0.980785 -0.074658
v -0.353553 0.923880 -0.146447
v -0.513279 0.831470 -0.212607
v -0.653281 0.707107 -0.270598
v -0.768177 0.555570 -0.318190
v -0.853553 0.382683 -0.353553
v -0.906127 0.195090 -0.375330
v -0.923878 0.000000 -0.382683
v -0.906127 -0.195090 -0.375330
v -0.853553 -0.382683 -0.353553
v -0.768177 -0.555570 -0.318190
v -0.653281 -0.707107 -0.270598
v -0.513279 -0.831470 -0.212607
v -0.353553 -0.923880 -0.146447
v -0.180240 -0.980785 -0.074658
v -0.162212 0.980785 -0.108386
v -0.318189 0.923880 -0.212607
v -0.461939 0.831470 -0.308658
v -0.587938 0.707107 -0.392847
v -0.691341 0.555570 -0.461940
v -0.768177 0.382683 -0.513280
v -0.815493 0.195090 -0.544895
v -0.831468 0.000000 -0.555570
v -0.815493 -0.195090 -0.544895
v -0.768177 -0.382683 -0.513280
v -0.691341 -0.555570 -0.461940
v -0.587938 -0.707107 -0.392847
v -0.461939 -0.831470 -0.308658
v -0.318189 -0.923880 -0.212607
v -0.162212 -0.980785 -0.108386
v -0.137950 0.980785 -0.137950
v -0.270598 0.923880 -0.270598
v -0.392847 0.831470 -0.392847
v -0.500000 0.707107 -0.500000
v -0.587937 0.555570 -0.587938
v -0.653281 0.382683 -0.653281
v -0.693519 0.195090 -0.693520
v -0.707106 0.000000 -0.707106
v -0.693519 -0.195090 -0.693520
v -0.653281 -0.382683 -0.653281
v -0.587937 -0.555570 -0.587938
v -0.500000 -0.707107 -0.500000
v -0.392847 -0.831470 -0.392847
v -0.270598 -0.923880 -0.270598
v -0.137950 -0.980785 -0.137950
v -0.108386 0.980785 -0.162212
v -0.212607 0.923880 -0.318190
v -0.308658 0.831470 -0.461939
v -0.392847 0.707107 -0.587938
v -0.461939 0.555570 -0.691341
v -0.513280 0.382683 -0.768177
v -0.544895 0.195090 -0.815493
v -0.555569 0.000000 -0.831469
v -0.544895 -0.195090 -0.815493
v -0.513280 -0.382683 -0.768177
v -0.461939 -0.555570 -0.691341
v -0.392847 -0.707107 -0.587938
v -0.308658 -0.831470 -0.461939
v -0.212607 -0.923880 -0.318190
v -0.108386 -0.980785 -0.162212
v -0.074658 0.980785 -0.180240
v -0.146446 0.923880 -0.353553
v -0.212607 0.831470 -0.513279
v -0.270598 0.707107 -0.653281
v -0.318189 0.555570 -0.768177
v -0.353553 0.382683 -0.853553
v -0.375330 0.195090 -0.906127
v -0.382683 0.000000 -0.923879
v -0.375330 -0.195090 -0.906127
v -0.353553 -0.382683 -0.853553
v -0.318189 -0.555570 -0.768177
v -0.270598 -0.707107 -0.653281
v -0.212607 -0.831470 -0.513279
v -0.146446 -0.923880 -0.353553
v -0.074658 -0.980785 -0.180240
v -0.038060 0.980785 -0.191342
v -0.074658 0.923880 -0.375330
v -0.108386 0.831470 -0.544895
v -0.137950 0.707107 -0.693520
v -0.162211 0.555570 -0.815493
v -0.180240 0.382683 -0.906127
v -0.191341 0.195090 -0.961939
v -0.195090 0.000000 -0.980784
v -0.191341 -0.195090 -0.961939
v -0.180240 -0.382683 -0.906127
v -0.162211 -0.555570 -0.815493
v -0.137950 -0.707107 -0.693520
v -0.108386 -0.831470 -0.544895
v -0.074658 -0.923880 -0.375330
v -0.038060 -0.980785 -0.191342
v 0.000000 0.980785 -0.195090
v 0.000000 0.923880 -0.382683
v 0.000000 0.707107 -0.707107
v 0.000000 0.382683 -0.923879
v 0.000000 -0.382683 -0.923879
v 0.000000 -0.707107 -0.707107
v 0.000000 -0.831470 -0.555570
v 0.000000 -0.923880 -0.382683
v 0.000000 -0.980785 -0.195090
vn -0.0000 -0.7041 -0.7101
vn 0.1626 -0.5528 -0.8173
vn 0.1385 -0.7041 -0.6965
vn -0.0000 0.5528 -0.8333
vn 0.1385 0.7041 -0.6965
vn 0.1626 0.5528 -0.8173
vn -0.0000 -0.8286 -0.5598
vn 0.1092 -0.8286 -0.5490
vn -0.0000 0.3805 -0.9248
vn 0.1804 0.3805 -0.9070
vn -0.0000 -0.9217 -0.3879
vn 0.0757 -0.9217 -0.3804
vn -0.0000 0.1939 -0.9810
vn 0.1914 0.1939 -0.9622
vn -0.0000 -0.9796 -0.2010
vn 0.0392 -0.9796 -0.1971
vn -0.0000 -0.0000 -1.0000
vn 0.1951 -0.0000 -0.9808
vn -0.0000 0.9796 -0.2010
vn -0.0000 1.0000 -0.0000
vn 0.0392 0.9796 -0.1971
vn -0.0000 -1.0000 -0.0000
vn -0.0000 -0.1939 -0.9810
vn 0.1914 -0.1939 -0.9622
vn -0.0000 0.9217 -0.3879
vn 0.0757 0.9217 -0.3804
vn -0.0000 -0.3805 -0.9248
vn 0.1804 -0.3805 -0.9070
vn -0.0000 0.8286 -0.5598
vn 0.1092 0.8286 -0.5490
vn -0.0000 -0.5528 -0.8333
vn -0.0000 0.7041 -0.7101
vn 0.3539 -0.3805 -0.8544
vn 0.3189 -0.5528 -0.7699
vn 0.2142 0.8286 -0.5172
vn 0.2718 0.7041 -0.6561
vn 0.2718 -0.7041 -0.6561
vn 0.3189 0.5528 -0.7699
vn 0.2142 -0.8286 -0.5172
vn 0.3539 0.3805 -0.8544
vn 0.1484 -0.9217 -0.3584
vn 0.3754 0.1939 -0.9063
vn 0.0769 -0.9796 -0.1857
vn 0.3827 -0.0000 -0.9239
vn 0.0769 0.9796 -0.1857
vn 0.3754 -0.1939 -0.9063
vn 0.1484 0.9217 -0.3584
vn 0.2155 -0.9217 -0.3225
vn 0.1117 -0.9796 -0.1671
vn 0.5450 0.1939 -0.8157
vn 0.5556 -0.0000 -0.8315
vn 0.1117 0.9796 -0.1671
vn 0.5450 -0.1939 -0.8157
vn 0.2155 0.9217 -0.3225
vn 0.5138 -0.3805 -0.7689
vn 0.3110 0.8286 -0.4654
vn 0.4630 -0.5528 -0.6929
vn 0.3945 0.7041 -0.5905
vn 0.3945 -0.7041 -0.5905
vn 0.4630 0.5528 -0.6929
vn 0.3110 -0.8286 -0.4654
vn 0.5138 0.3805 -0.7689
vn 0.3958 0.8286 -0.3958
vn 0.5021 0.7041 -0.5021
vn 0.5893 -0.5528 -0.5893
vn 0.5021 -0.7041 -0.5021
vn 0.5893 0.5528 -0.5893
vn 0.3958 -0.8286 -0.3958
vn 0.6539 0.3805 -0.6539
vn 0.2743 -0.9217 -0.2743
vn 0.6937 0.1939 -0.6937
vn 0.1421 -0.9796 -0.1421
vn 0.7071 -0.0000 -0.7071
vn 0.1421 0.9796 -0.1421
vn 0.6937 -0.1939 -0.6937
vn 0.2743 0.9217 -0.2743
vn 0.6539 -0.3805 -0.6539
vn 0.8157 0.1939 -0.5450
vn 0.8315 -0.0000 -0.5556
vn 0.1671 0.9796 -0.1117
vn 0.1671 -0.9796 -0.1117
vn 0.8157 -0.1939 -0.5450
vn 0.3225 0.9217 -0.2155
vn 0.7689 -0.3805 -0.5138
vn 0.4654 0.8286 -0.3110
vn 0.6929 -0.5528 -0.4630
vn 0.5905 0.7041 -0.3945
vn 0.5905 -0.7041 -0.3945
vn 0.6929 0.5528 -0.4630
vn 0.4654 -0.8286 -0.3110
vn 0.7689 0.3805 -0.5138
vn 0.3225 -0.9217 -0.2155
vn 0.7699 -0.5528 -0.3189
vn 0.6561 -0.7041 -0.2718
vn 0.6561 0.7041 -0.2718
vn 0.7699 0.5528 -0.3189
vn 0.5172 -0.8286 -0.2142
vn 0.8544 0.3805 -0.3539
vn 0.3584 -0.9217 -0.1484
vn 0.9063 0.1939 -0.3754
vn 0.1857 -0.9796 -0.0769
vn 0.9239 -0.0000 -0.3827
vn 0.1857 0.9796 -0.0769
vn 0.9063 -0.1939 -0.3754
vn 0.3584 0.9217 -0.1484
vn 0.8544 -0.3805 -0.3539
vn 0.5172 0.8286 -0.2142
vn 0.1971 0.9796 -0.0392
vn 0.1971 -0.9796 -0.0392
vn 0.9808 -0.0000 -0.1951
vn 0.9622 -0.1939 -0.1914
vn 0.3804 0.9217 -0.0757
vn 0.9070 -0.3805 -0.1804
vn 0.5490 0.8286 -0.1092
vn 0.8173 -0.5528 -0.1626
vn 0.6965 0.7041 -0.1385
vn 0.6965 -0.7041 -0.1385
vn 0.8173 0.5528 -0.1626
vn 0.5490 -0.8286 -0.1092
vn 0.9070 0.3805 -0.1804
vn 0.3804 -0.9217 -0.0757
vn 0.9622 0.1939 -0.1914
vn 0.7101 0.7041 -0.0000
vn 0.8333 0.5528 -0.0000
vn 0.7101 -0.7041 -0.0000
vn 0.5598 -0.8286 -0.0000
vn 0.9248 0.3805 -0.0000
vn 0.3879 -0.9217 -0.0000
vn 0.9810 0.1939 -0.0000
vn 0.2010 -0.9796 -0.0000
vn 1.0000 -0.0000 -0.0000
vn 0.2010 0.9796 -0.0000
vn 0.9810 -0.1939 -0.0000
vn 0.3879 0.9217 -0.0000
vn 0.9248 -0.3805 -0.0000
vn 0.5598 0.8286 -0.0000
vn 0.8333 -0.5528 -0.0000
vn 0.9808 -0.0000 0.1951
vn 0.9622 -0.1939 0.1914
vn 0.1971 0.9796 0.0392
vn 0.3804 0.9217 0.0757
vn 0.9070 -0.3805 0.1804
vn 0.5490 0.8286 0.1092
vn 0.8173 -0.5528 0.1626
vn 0.6965 0.7041 0.1385
vn 0.6965 -0.7041 0.1385
vn 0.8173 0.5528 0.1626
vn 0.5490 -0.8286 0.1092
vn 0.9070 0.3805 0.1804
vn 0.3804 -0.9217 0.0757
vn 0.9622 0.1939 0.1914
vn 0.1971 -0.9796 0.0392
vn 0.6561 -0.7041 0.2718
vn 0.5172 -0.8286 0.2142
vn 0.7699 0.5528 0.3189
vn 0.8544 0.3805 0.3539
vn 0.3584 -0.9217 0.1484
vn 0.9063 0.1939 0.3754
vn 0.1857 -0.9796 0.0769
vn 0.9239 -0.0000 0.3827
vn 0.1857 0.9796 0.0769
vn 0.9063 -0.1939 0.3754
vn 0.3584 0.9217 0.1484
vn 0.8544 -0.3805 0.3539
vn 0.5172 0.8286 0.2142
vn 0.7699 -0.5528 0.3189
vn 0.6561 0.7041 0.2718
vn 0.8157 -0.1939 0.5450
vn 0.7689 -0.3805 0.5138
vn 0.3225 0.9217 0.2155
vn 0.4654 0.8286 0.3110
vn 0.6929 -0.5528 0.4630
vn 0.5905 0.7041 0.3945
vn 0.5905 -0.7041 0.3945
vn 0.6929 0.5528 0.4630
vn 0.4654 -0.8286 0.3110
vn 0.7689 0.3805 0.5138
vn 0.3225 -0.9217 0.2155
vn 0.8157 0.1939 0.5450
vn 0.1671 -0.9796 0.1117
vn 0.8315 -0.0000 0.5556
vn 0.1671 0.9796 0.1117
vn 0.3958 -0.8286 0.3958
vn 0.2743 -0.9217 0.2743
vn 0.6539 0.3805 0.6539
vn 0.6937 0.1939 0.6937
vn 0.1421 -0.9796 0.1421
vn 0.7071 -0.0000 0.7071
vn 0.1421 0.9796 0.1421
vn 0.6937 -0.1939 0.6937
vn 0.2743 0.9217 0.2743
vn 0.6539 -0.3805 0.6539
vn 0.3958 0.8286 0.3958
vn 0.5893 -0.5528 0.5893
vn 0.5021 0.7041 0.5021
vn 0.5021 -0.7041 0.5021
vn 0.5893 0.5528 0.5893
vn 0.2155 0.9217 0.3225
vn 0.3110 0.8286 0.4654
vn 0.5138 -0.3805 0.7689
vn 0.4630 -0.5528 0.6929
vn 0.3945 0.7041 0.5905
vn 0.3945 -0.7041 0.5905
vn 0.4630 0.5528 0.6929
vn 0.3110 -0.8286 0.4654
vn 0.5138 0.3805 0.7689
vn 0.2155 -0.9217 0.3225
vn 0.5450 0.1939 0.8157
vn 0.1117 -0.9796 0.1671
vn 0.5556 -0.0000 0.8315
vn 0.1117 0.9796 0.1671
vn 0.5450 -0.1939 0.8157
vn 0.3539 0.3805 0.8544
vn 0.3754 0.1939 0.9063
vn 0.1484 -0.9217 0.3584
vn 0.0769 -0.9796 0.1857
vn 0.3827 -0.0000 0.9239
vn 0.0769 0.9796 0.1857
vn 0.3754 -0.1939 0.9063
vn 0.1484 0.9217 0.3584
vn 0.3539 -0.3805 0.8544
vn 0.2142 0.8286 0.5172
vn 0.3189 -0.5528 0.7699
vn 0.2718 0.7041 0.6561
vn 0.2718 -0.7041 0.6561
vn 0.3189 0.5528 0.7699
vn 0.2142 -0.8286 0.5172
vn 0.1804 -0.3805 0.9070
vn 0.1626 -0.5528 0.8173
vn 0.1092 0.8286 0.5490
vn 0.1385 0.7041 0.6965
vn 0.1385 -0.7041 0.6965
vn 0.1626 0.5528 0.8173
vn 0.1092 -0.8286 0.5490
vn 0.1804 0.3805 0.9070
vn 0.0757 -0.9217 0.3804
vn 0.1914 0.1939 0.9622
vn 0.0392 -0.9796 0.1971
vn 0.1951 -0.0000 0.9808
vn 0.0392 0.9796 0.1971
vn 0.1914 -0.1939 0.9622
vn 0.0757 0.9217 0.3804
vn -0.0000 -0.9217 0.3879
vn -0.0000 -0.9796 0.2010
vn -0.0000 0.1939 0.9810
vn -0.0000 -0.0000 1.0000
vn -0.0000 0.9796 0.2010
vn -0.0000 -0.1939 0.9810
vn -0.0000 0.9217 0.3879
vn -0.0000 -0.3805 0.9248
vn -0.0000 0.8286 0.5598
vn -0.0000 -0.5528 0.8333
vn -0.0000 0.7041 0.7101
vn -0.0000 -0.7041 0.7101
vn -0.0000 0.5528 0.8333
vn -0.0000 -0.8286 0.5598
vn -0.0000 0.3805 0.9248
vn -0.1092 0.8286 0.5490
vn -0.1385 0.7041 0.6965
vn -0.1626 -0.5528 0.8173
vn -0.1385 -0.7041 0.6965
vn -0.1626 0.5528 0.8173
vn -0.1092 -0.8286 0.5490
vn -0.1804 0.3805 0.9070
vn -0.0757 -0.9217 0.3804
vn -0.1914 0.1939 0.9622
vn -0.0392 -0.9796 0.1971
vn -0.1951 -0.0000 0.9808
vn -0.0392 0.9796 0.1971
vn -0.1914 -0.1939 0.9622
vn -0.0757 0.9217 0.3804
vn -0.1804 -0.3805 0.9070
vn -0.3754 0.1939 0.9063
vn -0.3827 -0.0000 0.9239
vn -0.0769 0.9796 0.1857
vn -0.0769 -0.9796 0.1857
vn -0.3754 -0.1939 0.9063
vn -0.1484 0.9217 0.3584
vn -0.3539 -0.3805 0.8544
vn -0.2142 0.8286 0.5172
vn -0.3189 -0.5528 0.7699
vn -0.2718 0.7041 0.6561
vn -0.2718 -0.7041 0.6561
vn -0.3189 0.5528 0.7699
vn -0.2142 -0.8286 0.5172
vn -0.3539 0.3805 0.8544
vn -0.1484 -0.9217 0.3584
vn -0.4630 -0.5528 0.6929
vn -0.3945 -0.7041 0.5905
vn -0.3945 0.7041 0.5905
vn -0.4630 0.5528 0.6929
vn -0.3110 -0.8286 0.4654
vn -0.5138 0.3805 0.7689
vn -0.2155 -0.9217 0.3225
vn -0.5450 0.1939 0.8157
vn -0.1117 -0.9796 0.1671
vn -0.5556 -0.0000 0.8315
vn -0.1117 0.9796 0.1671
vn -0.5450 -0.1939 0.8157
vn -0.2155 0.9217 0.3225
vn -0.5138 -0.3805 0.7689
vn -0.3110 0.8286 0.4654
vn -0.1421 -0.9796 0.1421
vn -0.7071 -0.0000 0.7071
vn -0.6937 -0.1939 0.6937
vn -0.1421 0.9796 0.1421
vn -0.2743 0.9217 0.2743
vn -0.6539 -0.3805 0.6539
vn -0.3958 0.8286 0.3958
vn -0.5893 -0.5528 0.5893
vn -0.5021 0.7041 0.5021
vn -0.5021 -0.7041 0.5021
vn -0.5893 0.5528 0.5893
vn -0.3958 -0.8286 0.3958
vn -0.6539 0.3805 0.6539
vn -0.2743 -0.9217 0.2743
vn -0.6937 0.1939 0.6937
vn -0.5905 -0.7041 0.3945
vn -0.4654 -0.8286 0.3110
vn -0.6929 0.5528 0.4630
vn -0.7689 0.3805 0.5138
vn -0.3225 -0.9217 0.2155
vn -0.8157 0.1939 0.5450
vn -0.1671 -0.9796 0.1117
vn -0.8315 -0.0000 0.5556
vn -0.1671 0.9796 0.1117
vn -0.8157 -0.1939 0.5450
vn -0.3225 0.9217 0.2155
vn -0.7689 -0.3805 0.5138
vn -0.4654 0.8286 0.3110
vn -0.6929 -0.5528 0.4630
vn -0.5905 0.7041 0.3945
vn -0.1857 0.9796 0.0769
vn -0.3584 0.9217 0.1484
vn -0.9063 -0.1939 0.3754
vn -0.8544 -0.3805 0.3539
vn -0.5172 0.8286 0.2142
vn -0.7699 -0.5528 0.3189
vn -0.6561 0.7041 0.2718
vn -0.6561 -0.7041 0.2718
vn -0.7699 0.5528 0.3189
vn -0.5172 -0.8286 0.2142
vn -0.8544 0.3805 0.3539
vn -0.3584 -0.9217 0.1484
vn -0.9063 0.1939 0.3754
vn -0.1857 -0.9796 0.0769
vn -0.9239 -0.0000 0.3827
vn -0.8173 0.5528 0.1626
vn -0.9070 0.3805 0.1804
vn -0.5490 -0.8286 0.1092
vn -0.3804 -0.9217 0.0757
vn -0.9622 0.1939 0.1914
vn -0.1971 -0.9796 0.0392
vn -0.9808 -0.0000 0.1951
vn -0.1971 0.9796 0.0392
vn -0.9622 -0.1939 0.1914
vn -0.3804 0.9217 0.0757
vn -0.9070 -0.3805 0.1804
vn -0.5490 0.8286 0.1092
vn -0.8173 -0.5528 0.1626
vn -0.6965 0.7041 0.1385
vn -0.6965 -0.7041 0.1385
vn -0.9810 -0.1939 -0.0000
vn -0.9248 -0.3805 -0.0000
vn -0.3879 0.9217 -0.0000
vn -0.5598 0.8286 -0.0000
vn -0.8333 -0.5528 -0.0000
vn -0.7101 0.7041 -0.0000
vn -0.7101 -0.7041 -0.0000
vn -0.8333 0.5528 -0.0000
vn -0.5598 -0.8286 -0.0000
vn -0.9248 0.3805 -0.0000
vn -0.3879 -0.9217 -0.0000
vn -0.9810 0.1939 -0.0000
vn -0.2010 -0.9796 -0.0000
vn -1.0000 -0.0000 -0.0000
vn -0.2010 0.9796 -0.0000
vn -0.5490 -0.8286 -0.1092
vn -0.3804 -0.9217 -0.0757
vn -0.9070 0.3805 -0.1804
vn -0.9622 0.1939 -0.1914
vn -0.1971 -0.9796 -0.0392
vn -0.9808 -0.0000 -0.1951
vn -0.1971 0.9796 -0.0392
vn -0.9622 -0.1939 -0.1914
vn -0.3804 0.9217 -0.0757
vn -0.9070 -0.3805 -0.1804
vn -0.5490 0.8286 -0.1092
vn -0.8173 -0.5528 -0.1626
vn -0.6965 0.7041 -0.1385
vn -0.6965 -0.7041 -0.1385
vn -0.8173 0.5528 -0.1626
vn -0.3584 0.9217 -0.1484
vn -0.5172 0.8286 -0.2142
vn -0.8544 -0.3805 -0.3539
vn -0.7699 -0.5528 -0.3189
vn -0.6561 0.7041 -0.2718
vn -0.6561 -0.7041 -0.2718
vn -0.7699 0.5528 -0.3189
vn -0.5172 -0.8286 -0.2142
vn -0.8544 0.3805 -0.3539
vn -0.3584 -0.9217 -0.1484
vn -0.9063 0.1939 -0.3754
vn -0.1857 -0.9796 -0.0769
vn -0.9239 -0.0000 -0.3827
vn -0.1857 0.9796 -0.0769
vn -0.9063 -0.1939 -0.3754
vn -0.7689 0.3805 -0.5138
vn -0.8157 0.1939 -0.5450
vn -0.3225 -0.9217 -0.2155
vn -0.1671 -0.9796 -0.1117
vn -0.8315 -0.0000 -0.5556
vn -0.1671 0.9796 -0.1117
vn -0.8157 -0.1939 -0.5450
vn -0.3225 0.9217 -0.2155
vn -0.7689 -0.3805 -0.5138
vn -0.4654 0.8286 -0.3110
vn -0.6929 -0.5528 -0.4630
vn -0.5905 0.7041 -0.3945
vn -0.5905 -0.7041 -0.3945
vn -0.6929 0.5528 -0.4630
vn -0.4654 -0.8286 -0.3110
vn -0.6539 -0.3805 -0.6539
vn -0.5893 -0.5528 -0.5893
vn -0.3958 0.8286 -0.3958
vn -0.5021 0.7041 -0.5021
vn -0.5021 -0.7041 -0.5021
vn -0.5893 0.5528 -0.5893
vn -0.3958 -0.8286 -0.3958
vn -0.6539 0.3805 -0.6539
vn -0.2743 -0.9217 -0.2743
vn -0.6937 0.1939 -0.6937
vn -0.1421 -0.9796 -0.1421
vn -0.7071 -0.0000 -0.7071
vn -0.1421 0.9796 -0.1421
vn -0.6937 -0.1939 -0.6937
vn -0.2743 0.9217 -0.2743
vn -0.2155 -0.9217 -0.3225
vn -0.1117 -0.9796 -0.1671
vn -0.5450 0.1939 -0.8157
vn -0.5556 -0.0000 -0.8315
vn -0.1117 0.9796 -0.1671
vn -0.5450 -0.1939 -0.8157
vn -0.2155 0.9217 -0.3225
vn -0.5138 -0.3805 -0.7689
vn -0.3110 0.8286 -0.4654
vn -0.4630 -0.5528 -0.6929
vn -0.3945 0.7041 -0.5905
vn -0.3945 -0.7041 -0.5905
vn -0.4630 0.5528 -0.6929
vn -0.3110 -0.8286 -0.4654
vn -0.5138 0.3805 -0.7689
vn -0.3189 -0.5528 -0.7699
vn -0.2718 -0.7041 -0.6561
vn -0.2718 0.7041 -0.6561
vn -0.3189 0.5528 -0.7699
vn -0.2142 -0.8286 -0.5172
vn -0.3539 0.3805 -0.8544
vn -0.1484 -0.9217 -0.3584
vn -0.3754 0.1939 -0.9063
vn -0.0769 -0.9796 -0.1857
vn -0.3827 -0.0000 -0.9239
vn -0.0769 0.9796 -0.1857
vn -0.3754 -0.1939 -0.9063
vn -0.1484 0.9217 -0.3584
vn -0.3539 -0.3805 -0.8544
vn -0.2142 0.8286 -0.5172
vn -0.0392 0.9796 -0.1971
vn -0.0392 -0.9796 -0.1971
vn -0.1951 -0.0000 -0.9808
vn -0.1914 -0.1939 -0.9622
vn -0.0757 0.9217 -0.3804
vn -0.1804 -0.3805 -0.9070
vn -0.1092 0.8286 -0.5490
vn -0.1626 -0.5528 -0.8173
vn -0.1385 0.7041 -0.6965
vn -0.1385 -0.7041 -0.6965
vn -0.1626 0.5528 -0.8173
vn -0.1092 -0.8286 -0.5490
vn -0.1804 0.3805 -0.9070
vn -0.0757 -0.9217 -0.3804
vn -0.1914 0.1939 -0.9622
vt 0.750000 0.250000
vt 0.718750 0.312500
vt 0.718750 0.250000
vt 0.750000 0.687500
vt 0.718750 0.750000
vt 0.718750 0.687500
vt 0.750000 0.187500
vt 0.718750 0.187500
vt 0.750000 0.625000
vt 0.718750 0.625000
vt 0.750000 0.125000
vt 0.718750 0.125000
vt 0.750000 0.562500
vt 0.718750 0.562500
vt 0.750000 0.062500
vt 0.718750 0.062500
vt 0.750000 0.500000
vt 0.718750 0.500000
vt 0.750000 0.937500
vt 0.734375 1.000000
vt 0.718750 0.937500
vt 0.734375 0.000000
vt 0.750000 0.437500
vt 0.718750 0.437500
vt 0.750000 0.875000
vt 0.718750 0.875000
vt 0.750000 0.375000
vt 0.718750 0.375000
vt 0.750000 0.812500
vt 0.718750 0.812500
vt 0.750000 0.312500
vt 0.750000 0.750000
vt 0.687500 0.375000
vt 0.687500 0.312500
vt 0.687500 0.812500
vt 0.687500 0.750000
vt 0.687500 0.250000
vt 0.687500 0.687500
vt 0.687500 0.187500
vt 0.687500 0.625000
vt 0.687500 0.125000
vt 0.687500 0.562500
vt 0.687500 0.062500
vt 0.687500 0.500000
vt 0.703125 1.000000
vt 0.687500 0.937500
vt 0.703125 0.000000
vt 0.687500 0.437500
vt 0.687500 0.875000
vt 0.656250 0.125000
vt 0.656250 0.062500
vt 0.656250 0.562500
vt 0.656250 0.500000
vt 0.671875 1.000000
vt 0.656250 0.937500
vt 0.671875 0.000000
vt 0.656250 0.437500
vt 0.656250 0.875000
vt 0.656250 0.375000
vt 0.656250 0.812500
vt 0.656250 0.312500
vt 0.656250 0.750000
vt 0.656250 0.250000
vt 0.656250 0.687500
vt 0.656250 0.187500
vt 0.656250 0.625000
vt 0.625000 0.812500
vt 0.625000 0.750000
vt 0.625000 0.312500
vt 0.625000 0.250000
vt 0.625000 0.687500
vt 0.625000 0.187500
vt 0.625000 0.625000
vt 0.625000 0.125000
vt 0.625000 0.562500
vt 0.625000 0.062500
vt 0.625000 0.500000
vt 0.640625 1.000000
vt 0.625000 0.937500
vt 0.640625 0.000000
vt 0.625000 0.437500
vt 0.625000 0.875000
vt 0.625000 0.375000
vt 0.593750 0.562500
vt 0.593750 0.500000
vt 0.609375 1.000000
vt 0.593750 0.937500
vt 0.609375 0.000000
vt 0.593750 0.062500
vt 0.593750 0.437500
vt 0.593750 0.875000
vt 0.593750 0.375000
vt 0.593750 0.812500
vt 0.593750 0.312500
vt 0.593750 0.750000
vt 0.593750 0.250000
vt 0.593750 0.687500
vt 0.593750 0.187500
vt 0.593750 0.625000
vt 0.593750 0.125000
vt 0.562500 0.312500
vt 0.562500 0.250000
vt 0.562500 0.750000
vt 0.562500 0.687500
vt 0.562500 0.187500
vt 0.562500 0.625000
vt 0.562500 0.125000
vt 0.562500 0.562500
vt 0.562500 0.062500
vt 0.562500 0.500000
vt 0.578125 1.000000
vt 0.562500 0.937500
vt 0.578125 0.000000
vt 0.562500 0.437500
vt 0.562500 0.875000
vt 0.562500 0.375000
vt 0.562500 0.812500
vt 0.546875 1.000000
vt 0.531250 0.937500
vt 0.546875 0.000000
vt 0.531250 0.062500
vt 0.531250 0.500000
vt 0.531250 0.437500
vt 0.531250 0.875000
vt 0.531250 0.375000
vt 0.531250 0.812500
vt 0.531250 0.312500
vt 0.531250 0.750000
vt 0.531250 0.250000
vt 0.531250 0.687500
vt 0.531250 0.187500
vt 0.531250 0.625000
vt 0.531250 0.125000
vt 0.531250 0.562500
vt 0.500000 0.750000
vt 0.500000 0.687500
vt 0.500000 0.250000
vt 0.500000 0.187500
vt 0.500000 0.625000
vt 0.500000 0.125000
vt 0.500000 0.562500
vt 0.500000 0.062500
vt 0.500000 0.500000
vt 0.515625 1.000000
vt 0.500000 0.937500
vt 0.515625 0.000000
vt 0.500000 0.437500
vt 0.500000 0.875000
vt 0.500000 0.375000
vt 0.500000 0.812500
vt 0.500000 0.312500
vt 0.468750 0.500000
vt 0.468750 0.437500
vt 0.468750 0.937500
vt 0.468750 0.875000
vt 0.468750 0.375000
vt 0.468750 0.812500
vt 0.468750 0.312500
vt 0.468750 0.750000
vt 0.468750 0.250000
vt 0.468750 0.687500
vt 0.468750 0.187500
vt 0.468750 0.625000
vt 0.468750 0.125000
vt 0.468750 0.562500
vt 0.468750 0.062500
vt 0.484375 1.000000
vt 0.484375 0.000000
vt 0.437500 0.250000
vt 0.437500 0.187500
vt 0.437500 0.687500
vt 0.437500 0.625000
vt 0.437500 0.125000
vt 0.437500 0.562500
vt 0.437500 0.062500
vt 0.437500 0.500000
vt 0.453125 1.000000
vt 0.437500 0.937500
vt 0.453125 0.000000
vt 0.437500 0.437500
vt 0.437500 0.875000
vt 0.437500 0.375000
vt 0.437500 0.812500
vt 0.437500 0.312500
vt 0.437500 0.750000
vt 0.406250 0.437500
vt 0.406250 0.375000
vt 0.406250 0.875000
vt 0.406250 0.812500
vt 0.406250 0.312500
vt 0.406250 0.750000
vt 0.406250 0.250000
vt 0.406250 0.687500
vt 0.406250 0.187500
vt 0.406250 0.625000
vt 0.406250 0.125000
vt 0.406250 0.562500
vt 0.406250 0.062500
vt 0.406250 0.500000
vt 0.421875 1.000000
vt 0.406250 0.937500
vt 0.421875 0.000000
vt 0.375000 0.187500
vt 0.375000 0.125000
vt 0.375000 0.625000
vt 0.375000 0.562500
vt 0.375000 0.062500
vt 0.375000 0.500000
vt 0.390625 1.000000
vt 0.375000 0.937500
vt 0.390625 0.000000
vt 0.375000 0.437500
vt 0.375000 0.875000
vt 0.375000 0.375000
vt 0.375000 0.812500
vt 0.375000 0.312500
vt 0.375000 0.750000
vt 0.375000 0.250000
vt 0.375000 0.687500
vt 0.343750 0.875000
vt 0.343750 0.812500
vt 0.343750 0.375000
vt 0.343750 0.312500
vt 0.343750 0.750000
vt 0.343750 0.250000
vt 0.343750 0.687500
vt 0.343750 0.187500
vt 0.343750 0.625000
vt 0.343750 0.125000
vt 0.343750 0.562500
vt 0.343750 0.062500
vt 0.343750 0.500000
vt 0.359375 1.000000
vt 0.343750 0.937500
vt 0.359375 0.000000
vt 0.343750 0.437500
vt 0.312500 0.625000
vt 0.312500 0.562500
vt 0.312500 0.125000
vt 0.312500 0.062500
vt 0.312500 0.500000
vt 0.328125 1.000000
vt 0.312500 0.937500
vt 0.328125 0.000000
vt 0.312500 0.437500
vt 0.312500 0.875000
vt 0.312500 0.375000
vt 0.312500 0.812500
vt 0.312500 0.312500
vt 0.312500 0.750000
vt 0.312500 0.250000
vt 0.312500 0.687500
vt 0.312500 0.187500
vt 0.281250 0.375000
vt 0.281250 0.312500
vt 0.281250 0.812500
vt 0.281250 0.750000
vt 0.281250 0.250000
vt 0.281250 0.687500
vt 0.281250 0.187500
vt 0.281250 0.625000
vt 0.281250 0.125000
vt 0.281250 0.562500
vt 0.281250 0.062500
vt 0.281250 0.500000
vt 0.296875 1.000000
vt 0.281250 0.937500
vt 0.296875 0.000000
vt 0.281250 0.437500
vt 0.281250 0.875000
vt 0.250000 0.125000
vt 0.250000 0.062500
vt 0.250000 0.562500
vt 0.250000 0.500000
vt 0.265625 1.000000
vt 0.250000 0.937500
vt 0.265625 0.000000
vt 0.250000 0.437500
vt 0.250000 0.875000
vt 0.250000 0.375000
vt 0.250000 0.812500
vt 0.250000 0.312500
vt 0.250000 0.750000
vt 0.250000 0.250000
vt 0.250000 0.687500
vt 0.250000 0.187500
vt 0.250000 0.625000
vt 0.218750 0.812500
vt 0.218750 0.750000
vt 0.218750 0.312500
vt 0.218750 0.250000
vt 0.218750 0.687500
vt 0.218750 0.187500
vt 0.218750 0.625000
vt 0.218750 0.125000
vt 0.218750 0.562500
vt 0.218750 0.062500
vt 0.218750 0.500000
vt 0.234375 1.000000
vt 0.218750 0.937500
vt 0.234375 0.000000
vt 0.218750 0.437500
vt 0.218750 0.875000
vt 0.218750 0.375000
vt 0.187500 0.562500
vt 0.187500 0.500000
vt 0.203125 1.000000
vt 0.187500 0.937500
vt 0.203125 0.000000
vt 0.187500 0.062500
vt 0.187500 0.437500
vt 0.187500 0.875000
vt 0.187500 0.375000
vt 0.187500 0.812500
vt 0.187500 0.312500
vt 0.187500 0.750000
vt 0.187500 0.250000
vt 0.187500 0.687500
vt 0.187500 0.187500
vt 0.187500 0.625000
vt 0.187500 0.125000
vt 0.156250 0.312500
vt 0.156250 0.250000
vt 0.156250 0.750000
vt 0.156250 0.687500
vt 0.156250 0.187500
vt 0.156250 0.625000
vt 0.156250 0.125000
vt 0.156250 0.562500
vt 0.156250 0.062500
vt 0.156250 0.500000
vt 0.171875 1.000000
vt 0.156250 0.937500
vt 0.171875 0.000000
vt 0.156250 0.437500
vt 0.156250 0.875000
vt 0.156250 0.375000
vt 0.156250 0.812500
vt 0.140625 0.000000
vt 0.125000 0.062500
vt 0.125000 0.500000
vt 0.125000 0.437500
vt 0.125000 0.937500
vt 0.125000 0.875000
vt 0.125000 0.375000
vt 0.125000 0.812500
vt 0.125000 0.312500
vt 0.125000 0.750000
vt 0.125000 0.250000
vt 0.125000 0.687500
vt 0.125000 0.187500
vt 0.125000 0.625000
vt 0.125000 0.125000
vt 0.125000 0.562500
vt 0.140625 1.000000
vt 0.093750 0.250000
vt 0.093750 0.187500
vt 0.093750 0.687500
vt 0.093750 0.625000
vt 0.093750 0.125000
vt 0.093750 0.562500
vt 0.093750 0.062500
vt 0.093750 0.500000
vt 0.109375 1.000000
vt 0.093750 0.937500
vt 0.109375 0.000000
vt 0.093750 0.437500
vt 0.093750 0.875000
vt 0.093750 0.375000
vt 0.093750 0.812500
vt 0.093750 0.312500
vt 0.093750 0.750000
vt 0.062500 0.937500
vt 0.062500 0.875000
vt 0.062500 0.437500
vt 0.062500 0.375000
vt 0.062500 0.812500
vt 0.062500 0.312500
vt 0.062500 0.750000
vt 0.062500 0.250000
vt 0.062500 0.687500
vt 0.062500 0.187500
vt 0.062500 0.625000
vt 0.062500 0.125000
vt 0.062500 0.562500
vt 0.062500 0.062500
vt 0.062500 0.500000
vt 0.078125 1.000000
vt 0.078125 0.000000
vt 0.031250 0.687500
vt 0.031250 0.625000
vt 0.031250 0.187500
vt 0.031250 0.125000
vt 0.031250 0.562500
vt 0.031250 0.062500
vt 0.031250 0.500000
vt 0.046875 1.000000
vt 0.031250 0.937500
vt 0.046875 0.000000
vt 0.031250 0.437500
vt 0.031250 0.875000
vt 0.031250 0.375000
vt 0.031250 0.812500
vt 0.031250 0.312500
vt 0.031250 0.750000
vt 0.031250 0.250000
vt 0.000000 0.437500
vt 0.000000 0.375000
vt 0.000000 0.875000
vt 0.000000 0.812500
vt 0.000000 0.312500
vt 0.000000 0.750000
vt 0.000000 0.250000
vt 0.000000 0.687500
vt 0.000000 0.187500
vt 0.000000 0.625000
vt 0.000000 0.125000
vt 0.000000 0.562500
vt 0.000000 0.062500
vt 0.000000 0.500000
vt 0.015625 1.000000
vt 0.000000 0.937500
vt 0.015625 0.000000
vt 1.000000 0.125000
vt 0.968750 0.187500
vt 0.968750 0.125000
vt 1.000000 0.562500
vt 0.968750 0.625000
vt 0.968750 0.562500
vt 1.000000 0.062500
vt 0.968750 0.062500
vt 1.000000 0.500000
vt 0.968750 0.500000
vt 1.000000 0.937500
vt 0.984375 1.000000
vt 0.968750 0.937500
vt 0.984375 0.000000
vt 1.000000 0.437500
vt 0.968750 0.437500
vt 1.000000 0.875000
vt 0.968750 0.875000
vt 1.000000 0.375000
vt 0.968750 0.375000
vt 1.000000 0.812500
vt 0.968750 0.812500
vt 1.000000 0.312500
vt 0.968750 0.312500
vt 1.000000 0.750000
vt 0.968750 0.750000
vt 1.000000 0.250000
vt 0.968750 0.250000
vt 1.000000 0.687500
vt 0.968750 0.687500
vt 1.000000 0.187500
vt 1.000000 0.625000
vt 0.937500 0.875000
vt 0.937500 0.812500
vt 0.937500 0.375000
vt 0.937500 0.312500
vt 0.937500 0.750000
vt 0.937500 0.250000
vt 0.937500 0.687500
vt 0.937500 0.187500
vt 0.937500 0.625000
vt 0.937500 0.125000
vt 0.937500 0.562500
vt 0.937500 0.062500
vt 0.937500 0.500000
vt 0.953125 1.000000
vt 0.937500 0.937500
vt 0.953125 0.000000
vt 0.937500 0.437500
vt 0.906250 0.625000
vt 0.906250 0.562500
vt 0.906250 0.125000
vt 0.906250 0.062500
vt 0.906250 0.500000
vt 0.921875 1.000000
vt 0.906250 0.937500
vt 0.921875 0.000000
vt 0.906250 0.437500
vt 0.906250 0.875000
vt 0.906250 0.375000
vt 0.906250 0.812500
vt 0.906250 0.312500
vt 0.906250 0.750000
vt 0.906250 0.250000
vt 0.906250 0.687500
vt 0.906250 0.187500
vt 0.875000 0.375000
vt 0.875000 0.312500
vt 0.875000 0.812500
vt 0.875000 0.750000
vt 0.875000 0.250000
vt 0.875000 0.687500
vt 0.875000 0.187500
vt 0.875000 0.625000
vt 0.875000 0.125000
vt 0.875000 0.562500
vt 0.875000 0.062500
vt 0.875000 0.500000
vt 0.890625 1.000000
vt 0.875000 0.937500
vt 0.890625 0.000000
vt 0.875000 0.437500
vt 0.875000 0.875000
vt 0.843750 0.125000
vt 0.843750 0.062500
vt 0.843750 0.562500
vt 0.843750 0.500000
vt 0.859375 1.000000
vt 0.843750 0.937500
vt 0.859375 0.000000
vt 0.843750 0.437500
vt 0.843750 0.875000
vt 0.843750 0.375000
vt 0.843750 0.812500
vt 0.843750 0.312500
vt 0.843750 0.750000
vt 0.843750 0.250000
vt 0.843750 0.687500
vt 0.843750 0.187500
vt 0.843750 0.625000
vt 0.812500 0.312500
vt 0.812500 0.250000
vt 0.812500 0.750000
vt 0.812500 0.687500
vt 0.812500 0.187500
vt 0.812500 0.625000
vt 0.812500 0.125000
vt 0.812500 0.562500
vt 0.812500 0.062500
vt 0.812500 0.500000
vt 0.828125 1.000000
vt 0.812500 0.937500
vt 0.828125 0.000000
vt 0.812500 0.437500
vt 0.812500 0.875000
vt 0.812500 0.375000
vt 0.812500 0.812500
vt 0.796875 1.000000
vt 0.781250 0.937500
vt 0.796875 0.000000
vt 0.781250 0.062500
vt 0.781250 0.500000
vt 0.781250 0.437500
vt 0.781250 0.875000
vt 0.781250 0.375000
vt 0.781250 0.812500
vt 0.781250 0.312500
vt 0.781250 0.750000
vt 0.781250 0.250000
vt 0.781250 0.687500
vt 0.781250 0.187500
vt 0.781250 0.625000
vt 0.781250 0.125000
vt 0.781250 0.562500
vt 0.765625 1.000000
vt 0.765625 0.000000
s 1
f 479/1/1 17/2/2 18/3/3
f 2/4/4 10/5/5 11/6/6
f 480/7/7 18/3/3 19/8/8
f 477/9/9 11/6/6 12/10/10
f 481/11/11 19/8/8 20/12/12
f 3/13/13 12/10/10 13/14/14
f 482/15/15 20/12/12 21/16/16
f 4/17/17 13/14/14 14/18/18
f 474/19/19 82/20/20 7/21/21
f 308/22/22 482/15/15 21/16/16
f 5/23/23 14/18/18 15/24/24
f 475/25/25 7/21/21 8/26/26
f 478/27/27 15/24/24 16/28/28
f 1/29/29 8/26/26 9/30/30
f 6/31/31 16/28/28 17/2/2
f 476/32/32 9/30/30 10/5/5
f 17/2/2 31/33/33 32/34/34
f 10/5/5 24/35/35 25/36/36
f 18/3/3 32/34/34 33/37/37
f 11/6/6 25/36/36 26/38/38
f 19/8/8 33/37/37 34/39/39
f 12/10/10 26/38/38 27/40/40
f 20/12/12 34/39/39 35/41/41
f 13/14/14 27/40/40 28/42/42
f 21/16/16 35/41/41 36/43/43
f 14/18/18 28/42/42 29/44/44
f 7/21/21 82/45/20 22/46/45
f 308/47/22 21/16/16 36/43/43
f 15/24/24 29/44/44 30/48/46
f 8/26/26 22/46/45 23/49/47
f 16/28/28 30/48/46 31/33/33
f 9/30/30 23/49/47 24/35/35
f 36/43/43 50/50/48 51/51/49
f 29/44/44 43/52/50 44/53/51
f 22/46/45 82/54/20 37/55/52
f 308/56/22 36/43/43 51/51/49
f 30/48/46 44/53/51 45/57/53
f 23/49/47 37/55/52 38/58/54
f 31/33/33 45/57/53 46/59/55
f 24/35/35 38/58/54 39/60/56
f 32/34/34 46/59/55 47/61/57
f 25/36/36 39/60/56 40/62/58
f 33/37/37 47/61/57 48/63/59
f 26/38/38 40/62/58 41/64/60
f 34/39/39 48/63/59 49/65/61
f 27/40/40 41/64/60 42/66/62
f 35/41/41 49/65/61 50/50/48
f 28/42/42 42/66/62 43/52/50
f 40/62/58 54/67/63 55/68/64
f 48/63/59 62/69/65 63/70/66
f 41/64/60 55/68/64 56/71/67
f 49/65/61 63/70/66 64/72/68
f 42/66/62 56/71/67 57/73/69
f 50/50/48 64/72/68 65/74/70
f 43/52/50 57/73/69 58/75/71
f 51/51/49 65/74/70 66/76/72
f 44/53/51 58/75/71 59/77/73
f 37/55/52 82/78/20 52/79/74
f 308/80/22 51/51/49 66/76/72
f 45/57/53 59/77/73 60/81/75
f 38/58/54 52/79/74 53/82/76
f 46/59/55 60/81/75 61/83/77
f 39/60/56 53/82/76 54/67/63
f 47/61/57 61/83/77 62/69/65
f 59/77/73 73/84/78 74/85/79
f 52/79/74 82/86/20 67/87/80
f 308/88/22 66/76/72 81/89/81
f 60/81/75 74/85/79 75/90/82
f 53/82/76 67/87/80 68/91/83
f 61/83/77 75/90/82 76/92/84
f 54/67/63 68/91/83 69/93/85
f 62/69/65 76/92/84 77/94/86
f 55/68/64 69/93/85 70/95/87
f 63/70/66 77/94/86 78/96/88
f 56/71/67 70/95/87 71/97/89
f 64/72/68 78/96/88 79/98/90
f 57/73/69 71/97/89 72/99/91
f 65/74/70 79/98/90 80/100/92
f 58/75/71 72/99/91 73/84/78
f 66/76/72 80/100/92 81/89/81
f 78/96/88 93/101/93 94/102/94
f 71/97/89 86/103/95 87/104/96
f 79/98/90 94/102/94 95/105/97
f 72/99/91 87/104/96 88/106/98
f 80/100/92 95/105/97 96/107/99
f 73/84/78 88/106/98 89/108/100
f 81/89/81 96/107/99 97/109/101
f 74/85/79 89/108/100 90/110/102
f 67/87/80 82/111/20 83/112/103
f 308/113/22 81/89/81 97/109/101
f 75/90/82 90/110/102 91/114/104
f 68/91/83 83/112/103 84/115/105
f 76/92/84 91/114/104 92/116/106
f 69/93/85 84/115/105 85/117/107
f 77/94/86 92/116/106 93/101/93
f 70/95/87 85/117/107 86/103/95
f 83/112/103 82/118/20 98/119/108
f 308/120/22 97/109/101 112/121/109
f 91/114/104 105/122/110 106/123/111
f 84/115/105 98/119/108 99/124/112
f 92/116/106 106/123/111 107/125/113
f 85/117/107 99/124/112 100/126/114
f 93/101/93 107/125/113 108/127/115
f 86/103/95 100/126/114 101/128/116
f 94/102/94 108/127/115 109/129/117
f 87/104/96 101/128/116 102/130/118
f 95/105/97 109/129/117 110/131/119
f 88/106/98 102/130/118 103/132/120
f 96/107/99 110/131/119 111/133/121
f 89/108/100 103/132/120 104/134/122
f 97/109/101 111/133/121 112/121/109
f 90/110/102 104/134/122 105/122/110
f 102/130/118 116/135/123 117/136/124
f 110/131/119 124/137/125 125/138/126
f 103/132/120 117/136/124 118/139/127
f 111/133/121 125/138/126 126/140/128
f 104/134/122 118/139/127 119/141/129
f 112/121/109 126/140/128 127/142/130
f 105/122/110 119/141/129 120/143/131
f 98/119/108 82/144/20 113/145/132
f 308/146/22 112/121/109 127/142/130
f 106/123/111 120/143/131 121/147/133
f 99/124/112 113/145/132 114/148/134
f 107/125/113 121/147/133 122/149/135
f 100/126/114 114/148/134 115/150/136
f 108/127/115 122/149/135 123/151/137
f 101/128/116 115/150/136 116/135/123
f 109/129/117 123/151/137 124/137/125
f 121/147/133 135/152/138 136/153/139
f 114/148/134 128/154/140 129/155/141
f 122/149/135 136/153/139 137/156/142
f 115/150/136 129/155/141 130/157/143
f 123/151/137 137/156/142 138/158/144
f 116/135/123 130/157/143 131/159/145
f 124/137/125 138/158/144 139/160/146
f 117/136/124 131/159/145 132/161/147
f 125/138/126 139/160/146 140/162/148
f 118/139/127 132/161/147 133/163/149
f 126/140/128 140/162/148 141/164/150
f 119/141/129 133/163/149 134/165/151
f 127/142/130 141/164/150 142/166/152
f 120/143/131 134/165/151 135/152/138
f 113/145/132 82/167/20 128/154/140
f 308/168/22 127/142/130 142/166/152
f 140/162/148 154/169/153 155/170/154
f 133/163/149 147/171/155 148/172/156
f 141/164/150 155/170/154 156/173/157
f 134/165/151 148/172/156 149/174/158
f 142/166/152 156/173/157 157/175/159
f 135/152/138 149/174/158 150/176/160
f 128/154/140 82/177/20 143/178/161
f 308/179/22 142/166/152 157/175/159
f 136/153/139 150/176/160 151/180/162
f 129/155/141 143/178/161 144/181/163
f 137/156/142 151/180/162 152/182/164
f 130/157/143 144/181/163 145/183/165
f 138/158/144 152/182/164 153/184/166
f 131/159/145 145/183/165 146/185/167
f 139/160/146 153/184/166 154/169/153
f 132/161/147 146/185/167 147/171/155
f 152/182/164 166/186/168 167/187/169
f 145/183/165 159/188/170 160/189/171
f 153/184/166 167/187/169 168/190/172
f 146/185/167 160/189/171 161/191/173
f 154/169/153 168/190/172 169/192/174
f 147/171/155 161/191/173 162/193/175
f 155/170/154 169/192/174 170/194/176
f 148/172/156 162/193/175 163/195/177
f 156/173/157 170/194/176 171/196/178
f 149/174/158 163/195/177 164/197/179
f 157/175/159 171/196/178 172/198/180
f 150/176/160 164/197/179 165/199/181
f 143/178/161 82/200/20 158/201/182
f 308/202/22 157/175/159 172/198/180
f 151/180/162 165/199/181 166/186/168
f 144/181/163 158/201/182 159/188/170
f 171/196/178 185/203/183 186/204/184
f 164/197/179 178/205/185 179/206/186
f 172/198/180 186/204/184 187/207/187
f 165/199/181 179/206/186 180/208/188
f 158/201/182 82/209/20 173/210/189
f 308/211/22 172/198/180 187/207/187
f 166/186/168 180/208/188 181/212/190
f 159/188/170 173/210/189 174/213/191
f 167/187/169 181/212/190 182/214/192
f 160/189/171 174/213/191 175/215/193
f 168/190/172 182/214/192 183/216/194
f 161/191/173 175/215/193 176/217/195
f 169/192/174 183/216/194 184/218/196
f 162/193/175 176/217/195 177/219/197
f 170/194/176 184/218/196 185/203/183
f 163/195/177 177/219/197 178/205/185
f 175/215/193 189/220/198 190/221/199
f 183/216/194 197/222/200 198/223/201
f 176/217/195 190/221/199 191/224/202
f 184/218/196 198/223/201 199/225/203
f 177/219/197 191/224/202 192/226/204
f 185/203/183 199/225/203 200/227/205
f 178/205/185 192/226/204 193/228/206
f 186/204/184 200/227/205 201/229/207
f 179/206/186 193/228/206 194/230/208
f 187/207/187 201/229/207 202/231/209
f 180/208/188 194/230/208 195/232/210
f 173/210/189 82/233/20 188/234/211
f 308/235/22 187/207/187 202/231/209
f 181/212/190 195/232/210 196/236/212
f 174/213/191 188/234/211 189/220/198
f 182/214/192 196/236/212 197/222/200
f 194/230/208 208/237/213 209/238/214
f 202/231/209 216/239/215 217/240/216
f 195/232/210 209/238/214 210/241/217
f 188/234/211 82/242/20 203/243/218
f 308/244/22 202/231/209 217/240/216
f 196/236/212 210/241/217 211/245/219
f 189/220/198 203/243/218 204/246/220
f 197/222/200 211/245/219 212/247/221
f 190/221/199 204/246/220 205/248/222
f 198/223/201 212/247/221 213/249/223
f 191/224/202 205/248/222 206/250/224
f 199/225/203 213/249/223 214/251/225
f 192/226/204 206/250/224 207/252/226
f 200/227/205 214/251/225 215/253/227
f 193/228/206 207/252/226 208/237/213
f 201/229/207 215/253/227 216/239/215
f 213/249/223 227/254/228 228/255/229
f 206/250/224 220/256/230 221/257/231
f 214/251/225 228/255/229 229/258/232
f 207/252/226 221/257/231 222/259/233
f 215/253/227 229/258/232 230/260/234
f 208/237/213 222/259/233 223/261/235
f 216/239/215 230/260/234 231/262/236
f 209/238/214 223/261/235 224/263/237
f 217/240/216 231/262/236 232/264/238
f 210/241/217 224/263/237 225/265/239
f 203/243/218 82/266/20 218/267/240
f 308/268/22 217/240/216 232/264/238
f 211/245/219 225/265/239 226/269/241
f 204/246/220 218/267/240 219/270/242
f 212/247/221 226/269/241 227/254/228
f 205/248/222 219/270/242 220/256/230
f 232/264/238 246/271/243 247/272/244
f 225/265/239 239/273/245 240/274/246
f 218/267/240 82/275/20 233/276/247
f 308/277/22 232/264/238 247/272/244
f 226/269/241 240/274/246 241/278/248
f 219/270/242 233/276/247 234/279/249
f 227/254/228 241/278/248 242/280/250
f 220/256/230 234/279/249 235/281/251
f 228/255/229 242/280/250 243/282/252
f 221/257/231 235/281/251 236/283/253
f 229/258/232 243/282/252 244/284/254
f 222/259/233 236/283/253 237/285/255
f 230/260/234 244/284/254 245/286/256
f 223/261/235 237/285/255 238/287/257
f 231/262/236 245/286/256 246/271/243
f 224/263/237 238/287/257 239/273/245
f 236/283/253 250/288/258 251/289/259
f 244/284/254 258/290/260 259/291/261
f 237/285/255 251/289/259 252/292/262
f 245/286/256 259/291/261 260/293/263
f 238/287/257 252/292/262 253/294/264
f 246/271/243 260/293/263 261/295/265
f 239/273/245 253/294/264 254/296/266
f 247/272/244 261/295/265 262/297/267
f 240/274/246 254/296/266 255/298/268
f 233/276/247 82/299/20 248/300/269
f 308/301/22 247/272/244 262/297/267
f 241/278/248 255/298/268 256/302/270
f 234/279/249 248/300/269 249/303/271
f 242/280/250 256/302/270 257/304/272
f 235/281/251 249/303/271 250/288/258
f 243/282/252 257/304/272 258/290/260
f 255/298/268 269/305/273 270/306/274
f 248/300/269 82/307/20 263/308/275
f 308/309/22 262/297/267 277/310/276
f 256/302/270 270/306/274 271/311/277
f 249/303/271 263/308/275 264/312/278
f 257/304/272 271/311/277 272/313/279
f 250/288/258 264/312/278 265/314/280
f 258/290/260 272/313/279 273/315/281
f 251/289/259 265/314/280 266/316/282
f 259/291/261 273/315/281 274/317/283
f 252/292/262 266/316/282 267/318/284
f 260/293/263 274/317/283 275/319/285
f 253/294/264 267/318/284 268/320/286
f 261/295/265 275/319/285 276/321/287
f 254/296/266 268/320/286 269/305/273
f 262/297/267 276/321/287 277/310/276
f 274/317/283 288/322/288 289/323/289
f 267/318/284 281/324/290 282/325/291
f 275/319/285 289/323/289 290/326/292
f 268/320/286 282/325/291 283/327/293
f 276/321/287 290/326/292 291/328/294
f 269/305/273 283/327/293 284/329/295
f 277/310/276 291/328/294 292/330/296
f 270/306/274 284/329/295 285/331/297
f 263/308/275 82/332/20 278/333/298
f 308/334/22 277/310/276 292/330/296
f 271/311/277 285/331/297 286/335/299
f 264/312/278 278/333/298 279/336/300
f 272/313/279 286/335/299 287/337/301
f 265/314/280 279/336/300 280/338/302
f 273/315/281 287/337/301 288/322/288
f 266/316/282 280/338/302 281/324/290
f 308/339/22 292/330/296 307/340/303
f 286/335/299 300/341/304 301/342/305
f 279/336/300 293/343/306 294/344/307
f 287/337/301 301/342/305 302/345/308
f 280/338/302 294/344/307 295/346/309
f 288/322/288 302/345/308 303/347/310
f 281/324/290 295/346/309 296/348/311
f 289/323/289 303/347/310 304/349/312
f 282/325/291 296/348/311 297/350/313
f 290/326/292 304/349/312 305/351/314
f 283/327/293 297/350/313 298/352/315
f 291/328/294 305/351/314 306/353/316
f 284/329/295 298/352/315 299/354/317
f 292/330/296 306/353/316 307/340/303
f 285/331/297 299/354/317 300/341/304
f 278/333/298 82/355/20 293/343/306
f 305/351/314 320/356/318 321/357/319
f 298/352/315 313/358/320 314/359/321
f 306/353/316 321/357/319 322/360/322
f 299/354/317 314/359/321 315/361/323
f 307/340/303 322/360/322 323/362/324
f 300/341/304 315/361/323 316/363/325
f 293/343/306 82/364/20 309/365/326
f 308/366/22 307/340/303 323/362/324
f 301/342/305 316/363/325 317/367/327
f 294/344/307 309/365/326 310/368/328
f 302/345/308 317/367/327 318/369/329
f 295/346/309 310/368/328 311/370/330
f 303/347/310 318/369/329 319/371/331
f 296/348/311 311/370/330 312/372/332
f 304/349/312 319/371/331 320/356/318
f 297/350/313 312/372/332 313/358/320
f 310/368/328 324/373/333 325/374/334
f 318/369/329 332/375/335 333/376/336
f 311/370/330 325/374/334 326/377/337
f 319/371/331 333/376/336 334/378/338
f 312/372/332 326/377/337 327/379/339
f 320/356/318 334/378/338 335/380/340
f 313/358/320 327/379/339 328/381/341
f 321/357/319 335/380/340 336/382/342
f 314/359/321 328/381/341 329/383/343
f 322/360/322 336/382/342 337/384/344
f 315/361/323 329/383/343 330/385/345
f 323/362/324 337/384/344 338/386/346
f 316/363/325 330/385/345 331/387/347
f 309/365/326 82/388/20 324/373/333
f 308/389/22 323/362/324 338/386/346
f 317/367/327 331/387/347 332/375/335
f 329/383/343 343/390/348 344/391/349
f 337/384/344 351/392/350 352/393/351
f 330/385/345 344/391/349 345/394/352
f 338/386/346 352/393/351 353/395/353
f 331/387/347 345/394/352 346/396/354
f 324/373/333 82/397/20 339/398/355
f 308/399/22 338/386/346 353/395/353
f 332/375/335 346/396/354 347/400/356
f 325/374/334 339/398/355 340/401/357
f 333/376/336 347/400/356 348/402/358
f 326/377/337 340/401/357 341/403/359
f 334/378/338 348/402/358 349/404/360
f 327/379/339 341/403/359 342/405/361
f 335/380/340 349/404/360 350/406/362
f 328/381/341 342/405/361 343/390/348
f 336/382/342 350/406/362 351/392/350
f 348/402/358 362/407/363 363/408/364
f 341/403/359 355/409/365 356/410/366
f 349/404/360 363/408/364 364/411/367
f 342/405/361 356/410/366 357/412/368
f 350/406/362 364/411/367 365/413/369
f 343/390/348 357/412/368 358/414/370
f 351/392/350 365/413/369 366/415/371
f 344/391/349 358/414/370 359/416/372
f 352/393/351 366/415/371 367/417/373
f 345/394/352 359/416/372 360/418/374
f 353/395/353 367/417/373 368/419/375
f 346/396/354 360/418/374 361/420/376
f 339/398/355 82/421/20 354/422/377
f 308/423/22 353/395/353 368/419/375
f 347/400/356 361/420/376 362/407/363
f 340/401/357 354/422/377 355/409/365
f 367/424/373 381/425/378 382/426/379
f 360/427/374 374/428/380 375/429/381
f 368/430/375 382/426/379 383/431/382
f 361/432/376 375/429/381 376/433/383
f 354/434/377 82/435/20 369/436/384
f 308/437/22 368/430/375 383/431/382
f 362/438/363 376/433/383 377/439/385
f 355/440/365 369/436/384 370/441/386
f 363/442/364 377/439/385 378/443/387
f 356/444/366 370/441/386 371/445/388
f 364/446/367 378/443/387 379/447/389
f 357/448/368 371/445/388 372/449/390
f 365/450/369 379/447/389 380/451/391
f 358/452/370 372/449/390 373/453/392
f 366/454/371 380/451/391 381/425/378
f 359/455/372 373/453/392 374/428/380
f 371/445/388 385/456/393 386/457/394
f 379/447/389 393/458/395 394/459/396
f 372/449/390 386/457/394 387/460/397
f 380/451/391 394/459/396 395/461/398
f 373/453/392 387/460/397 388/462/399
f 381/425/378 395/461/398 396/463/400
f 374/428/380 388/462/399 389/464/401
f 382/426/379 396/463/400 397/465/402
f 375/429/381 389/464/401 390/466/403
f 383/431/382 397/465/402 398/467/404
f 376/433/383 390/466/403 391/468/405
f 369/436/384 82/469/20 384/470/406
f 308/471/22 383/431/382 398/467/404
f 377/439/385 391/468/405 392/472/407
f 370/441/386 384/470/406 385/456/393
f 378/443/387 392/472/407 393/458/395
f 390/466/403 404/473/408 405/474/409
f 398/467/404 412/475/410 413/476/411
f 391/468/405 405/474/409 406/477/412
f 384/470/406 82/478/20 399/479/413
f 308/480/22 398/467/404 413/476/411
f 392/472/407 406/477/412 407/481/414
f 385/456/393 399/479/413 400/482/415
f 393/458/395 407/481/414 408/483/416
f 386/457/394 400/482/415 401/484/417
f 394/459/396 408/483/416 409/485/418
f 387/460/397 401/484/417 402/486/419
f 395/461/398 409/485/418 410/487/420
f 388/462/399 402/486/419 403/488/421
f 396/463/400 410/487/420 411/489/422
f 389/464/401 403/488/421 404/473/408
f 397/465/402 411/489/422 412/475/410
f 409/485/418 423/490/423 424/491/424
f 402/486/419 416/492/425 417/493/426
f 410/487/420 424/491/424 425/494/427
f 403/488/421 417/493/426 418/495/428
f 411/489/422 425/494/427 426/496/429
f 404/473/408 418/495/428 419/497/430
f 412/475/410 426/496/429 427/498/431
f 405/474/409 419/497/430 420/499/432
f 413/476/411 427/498/431 428/500/433
f 406/477/412 420/499/432 421/501/434
f 399/479/413 82/502/20 414/503/435
f 308/504/22 413/476/411 428/500/433
f 407/481/414 421/501/434 422/505/436
f 400/482/415 414/503/435 415/506/437
f 408/483/416 422/505/436 423/490/423
f 401/484/417 415/506/437 416/492/425
f 428/500/433 442/507/438 443/508/439
f 421/501/434 435/509/440 436/510/441
f 414/503/435 82/511/20 429/512/442
f 308/513/22 428/500/433 443/508/439
f 422/505/436 436/510/441 437/514/443
f 415/506/437 429/512/442 430/515/444
f 423/490/423 437/514/443 438/516/445
f 416/492/425 430/515/444 431/517/446
f 424/491/424 438/516/445 439/518/447
f 417/493/426 431/517/446 432/519/448
f 425/494/427 439/518/447 440/520/449
f 418/495/428 432/519/448 433/521/450
f 426/496/429 440/520/449 441/522/451
f 419/497/430 433/521/450 434/523/452
f 427/498/431 441/522/451 442/507/438
f 420/499/432 434/523/452 435/509/440
f 440/520/449 454/524/453 455/525/454
f 433/521/450 447/526/455 448/527/456
f 441/522/451 455/525/454 456/528/457
f 434/523/452 448/527/456 449/529/458
f 442/507/438 456/528/457 457/530/459
f 435/509/440 449/529/458 450/531/460
f 443/508/439 457/530/459 458/532/461
f 436/510/441 450/531/460 451/533/462
f 429/512/442 82/534/20 444/535/463
f 308/536/22 443/508/439 458/532/461
f 437/514/443 451/533/462 452/537/464
f 430/515/444 444/535/463 445/538/465
f 438/516/445 452/537/464 453/539/466
f 431/517/446 445/538/465 446/540/467
f 439/518/447 453/539/466 454/524/453
f 432/519/448 446/540/467 447/526/455
f 444/535/463 82/541/20 459/542/468
f 308/543/22 458/532/461 473/544/469
f 452/537/464 466/545/470 467/546/471
f 445/538/465 459/542/468 460/547/472
f 453/539/466 467/546/471 468/548/473
f 446/540/467 460/547/472 461/549/474
f 454/524/453 468/548/473 469/550/475
f 447/526/455 461/549/474 462/551/476
f 455/525/454 469/550/475 470/552/477
f 448/527/456 462/551/476 463/553/478
f 456/528/457 470/552/477 471/554/479
f 449/529/458 463/553/478 464/555/480
f 457/530/459 471/554/479 472/556/481
f 450/531/460 464/555/480 465/557/482
f 458/532/461 472/556/481 473/544/469
f 451/533/462 465/557/482 466/545/470
f 463/553/478 476/32/32 2/4/4
f 471/554/479 479/1/1 480/7/7
f 464/555/480 2/4/4 477/9/9
f 472/556/481 480/7/7 481/11/11
f 465/557/482 477/9/9 3/13/13
f 473/544/469 481/11/11 482/15/15
f 466/545/470 3/13/13 4/17/17
f 459/542/468 82/558/20 474/19/19
f 308/559/22 473/544/469 482/15/15
f 467/546/471 4/17/17 5/23/23
f 460/547/472 474/19/19 475/25/25
f 468/548/473 5/23/23 478/27/27
f 461/549/474 475/25/25 1/29/29
f 469/550/475 478/27/27 6/31/31
f 462/551/476 1/29/29 476/32/32
f 470/552/477 6/31/31 479/1/1
f 479/1/1 6/31/31 17/2/2
f 2/4/4 476/32/32 10/5/5
f 480/7/7 479/1/1 18/3/3
f 477/9/9 2/4/4 11/6/6
f 481/11/11 480/7/7 19/8/8
f 3/13/13 477/9/9 12/10/10
f 482/15/15 481/11/11 20/12/12
f 4/17/17 3/13/13 13/14/14
f 5/23/23 4/17/17 14/18/18
f 475/25/25 474/19/19 7/21/21
f 478/27/27 5/23/23 15/24/24
f 1/29/29 475/25/25 8/26/26
f 6/31/31 478/27/27 16/28/28
f 476/32/32 1/29/29 9/30/30
f 17/2/2 16/28/28 31/33/33
f 10/5/5 9/30/30 24/35/35
f 18/3/3 17/2/2 32/34/34
f 11/6/6 10/5/5 25/36/36
f 19/8/8 18/3/3 33/37/37
f 12/10/10 11/6/6 26/38/38
f 20/12/12 19/8/8 34/39/39
f 13/14/14 12/10/10 27/40/40
f 21/16/16 20/12/12 35/41/41
f 14/18/18 13/14/14 28/42/42
f 15/24/24 14/18/18 29/44/44
f 8/26/26 7/21/21 22/46/45
f 16/28/28 15/24/24 30/48/46
f 9/30/30 8/26/26 23/49/47
f 36/43/43 35/41/41 50/50/48
f 29/44/44 28/42/42 43/52/50
f 30/48/46 29/44/44 44/53/51
f 23/49/47 22/46/45 37/55/52
f 31/33/33 30/48/46 45/57/53
f 24/35/35 23/49/47 38/58/54
f 32/34/34 31/33/33 46/59/55
f 25/36/36 24/35/35 39/60/56
f 33/37/37 32/34/34 47/61/57
f 26/38/38 25/36/36 40/62/58
f 34/39/39 33/37/37 48/63/59
f 27/40/40 26/38/38 41/64/60
f 35/41/41 34/39/39 49/65/61
f 28/42/42 27/40/40 42/66/62
f 40/62/58 39/60/56 54/67/63
f 48/63/59 47/61/57 62/69/65
f 41/64/60 40/62/58 55/68/64
f 49/65/61 48/63/59 63/70/66
f 42/66/62 41/64/60 56/71/67
f 50/50/48 49/65/61 64/72/68
f 43/52/50 42/66/62 57/73/69
f 51/51/49 50/50/48 65/74/70
f 44/53/51 43/52/50 58/75/71
f 45/57/53 44/53/51 59/77/73
f 38/58/54 37/55/52 52/79/74
f 46/59/55 45/57/53 60/81/75
f 39/60/56 38/58/54 53/82/76
f 47/61/57 46/59/55 61/83/77
f 59/77/73 58/75/71 73/84/78
f 60/81/75 59/77/73 74/85/79
f 53/82/76 52/79/74 67/87/80
f 61/83/77 60/81/75 75/90/82
f 54/67/63 53/82/76 68/91/83
f 62/69/65 61/83/77 76/92/84
f 55/68/64 54/67/63 69/93/85
f 63/70/66 62/69/65 77/94/86
f 56/71/67 55/68/64 70/95/87
f 64/72/68 63/70/66 78/96/88
f 57/73/69 56/71/67 71/97/89
f 65/74/70 64/72/68 79/98/90
f 58/75/71 57/73/69 72/99/91
f 66/76/72 65/74/70 80/100/92
f 78/96/88 77/94/86 93/101/93
f 71/97/89 70/95/87 86/103/95
f 79/98/90 78/96/88 94/102/94
f 72/99/91 71/97/89 87/104/96
f 80/100/92 79/98/90 95/105/97
f 73/84/78 72/99/91 88/106/98
f 81/89/81 80/100/92 96/107/99
f 74/85/79 73/84/78 89/108/100
f 75/90/82 74/85/79 90/110/102
f 68/91/83 67/87/80 83/112/103
f 76/92/84 75/90/82 91/114/104
f 69/93/85 68/91/83 84/115/105
f 77/94/86 76/92/84 92/116/106
f 70/95/87 69/93/85 85/117/107
f 91/114/104 90/110/102 105/122/110
f 84/115/105 83/112/103 98/119/108
f 92/116/106 91/114/104 106/123/111
f 85/117/107 84/115/105 99/124/112
f 93/101/93 92/116/106 107/125/113
f 86/103/95 85/117/107 100/126/114
f 94/102/94 93/101/93 108/127/115
f 87/104/96 86/103/95 101/128/116
f 95/105/97 94/102/94 109/129/117
f 88/106/98 87/104/96 102/130/118
f 96/107/99 95/105/97 110/131/119
f 89/108/100 88/106/98 103/132/120
f 97/109/101 96/107/99 111/133/121
f 90/110/102 89/108/100 104/134/122
f 102/130/118 101/128/116 116/135/123
f 110/131/119 109/129/117 124/137/125
f 103/132/120 102/130/118 117/136/124
f 111/133/121 110/131/119 125/138/126
f 104/134/122 103/132/120 118/139/127
f 112/121/109 111/133/121 126/140/128
f 105/122/110 104/134/122 119/141/129
f 106/123/111 105/122/110 120/143/131
f 99/124/112 98/119/108 113/145/132
f 107/125/113 106/123/111 121/147/133
f 100/126/114 99/124/112 114/148/134
f 108/127/115 107/125/113 122/149/135
f 101/128/116 100/126/114 115/150/136
f 109/129/117 108/127/115 123/151/137
f 121/147/133 120/143/131 135/152/138
f 114/148/134 113/145/132 128/154/140
f 122/149/135 121/147/133 136/153/139
f 115/150/136 114/148/134 129/155/141
f 123/151/137 122/149/135 137/156/142
f 116/135/123 115/150/136 130/157/143
f 124/137/125 123/151/137 138/158/144
f 117/136/124 116/135/123 131/159/145
f 125/138/126 124/137/125 139/160/146
f 118/139/127 117/136/124 132/161/147
f 126/140/128 125/138/126 140/162/148
f 119/141/129 118/139/127 133/163/149
f 127/142/130 126/140/128 141/164/150
f 120/143/131 119/141/129 134/165/151
f 140/162/148 139/160/146 154/169/153
f 133/163/149 132/161/147 147/171/155
f 141/164/150 140/162/148 155/170/154
f 134/165/151 133/163/149 148/172/156
f 142/166/152 141/164/150 156/173/157
f 135/152/138 134/165/151 149/174/158
f 136/153/139 135/152/138 150/176/160
f 129/155/141 128/154/140 143/178/161
f 137/156/142 136/153/139 151/180/162
f 130/157/143 129/155/141 144/181/163
f 138/158/144 137/156/142 152/182/164
f 131/159/145 130/157/143 145/183/165
f 139/160/146 138/158/144 153/184/166
f 132/161/147 131/159/145 146/185/167
f 152/182/164 151/180/162 166/186/168
f 145/183/165 144/181/163 159/188/170
f 153/184/166 152/182/164 167/187/169
f 146/185/167 145/183/165 160/189/171
f 154/169/153 153/184/166 168/190/172
f 147/171/155 146/185/167 161/191/173
f 155/170/154 154/169/153 169/192/174
f 148/172/156 147/171/155 162/193/175
f 156/173/157 155/170/154 170/194/176
f 149/174/158 148/172/156 163/195/177
f 157/175/159 156/173/157 171/196/178
f 150/176/160 149/174/158 164/197/179
f 151/180/162 150/176/160 165/199/181
f 144/181/163 143/178/161 158/201/182
f 171/196/178 170/194/176 185/203/183
f 164/197/179 163/195/177 178/205/185
f 172/198/180 171/196/178 186/204/184
f 165/199/181 164/197/179 179/206/186
f 166/186/168 165/199/181 180/208/188
f 159/188/170 158/201/182 173/210/189
f 167/187/169 166/186/168 181/212/190
f 160/189/171 159/188/170 174/213/191
f 168/190/172 167/187/169 182/214/192
f 161/191/173 160/189/171 175/215/193
f 169/192/174 168/190/172 183/216/194
f 162/193/175 161/191/173 176/217/195
f 170/194/176 169/192/174 184/218/196
f 163/195/177 162/193/175 177/219/197
f 175/215/193 174/213/191 189/220/198
f 183/216/194 182/214/192 197/222/200
f 176/217/195 175/215/193 190/221/199
f 184/218/196 183/216/194 198/223/201
f 177/219/197 176/217/195 191/224/202
f 185/203/183 184/218/196 199/225/203
f 178/205/185 177/219/197 192/226/204
f 186/204/184 185/203/183 200/227/205
f 179/206/186 178/205/185 193/228/206
f 187/207/187 186/204/184 201/229/207
f 180/208/188 179/206/186 194/230/208
f 181/212/190 180/208/188 195/232/210
f 174/213/191 173/210/189 188/234/211
f 182/214/192 181/212/190 196/236/212
f 194/230/208 193/228/206 208/237/213
f 202/231/209 201/229/207 216/239/215
f 195/232/210 194/230/208 209/238/214
f 196/236/212 195/232/210 210/241/217
f 189/220/198 188/234/211 203/243/218
f 197/222/200 196/236/212 211/245/219
f 190/221/199 189/220/198 204/246/220
f 198/223/201 197/222/200 212/247/221
f 191/224/202 190/221/199 205/248/222
f 199/225/203 198/223/201 213/249/223
f 192/226/204 191/224/202 206/250/224
f 200/227/205 199/225/203 214/251/225
f 193/228/206 192/226/204 207/252/226
f 201/229/207 200/227/205 215/253/227
f 213/249/223 212/247/221 227/254/228
f 206/250/224 205/248/222 220/256/230
f 214/251/225 213/249/223 228/255/229
f 207/252/226 206/250/224 221/257/231
f 215/253/227 214/251/225 229/258/232
f 208/237/213 207/252/226 222/259/233
f 216/239/215 215/253/227 230/260/234
f 209/238/214 208/237/213 223/261/235
f 217/240/216 216/239/215 231/262/236
f 210/241/217 209/238/214 224/263/237
f 211/245/219 210/241/217 225/265/239
f 204/246/220 203/243/218 218/267/240
f 212/247/221 211/245/219 226/269/241
f 205/248/222 204/246/220 219/270/242
f 232/264/238 231/262/236 246/271/243
f 225/265/239 224/263/237 239/273/245
f 226/269/241 225/265/239 240/274/246
f 219/270/242 218/267/240 233/276/247
f 227/254/228 226/269/241 241/278/248
f 220/256/230 219/270/242 234/279/249
f 228/255/229 227/254/228 242/280/250
f 221/257/231 220/256/230 235/281/251
f 229/258/232 228/255/229 243/282/252
f 222/259/233 221/257/231 236/283/253
f 230/260/234 229/258/232 244/284/254
f 223/261/235 222/259/233 237/285/255
f 231/262/236 230/260/234 245/286/256
f 224/263/237 223/261/235 238/287/257
f 236/283/253 235/281/251 250/288/258
f 244/284/254 243/282/252 258/290/260
f 237/285/255 236/283/253 251/289/259
f 245/286/256 244/284/254 259/291/261
f 238/287/257 237/285/255 252/292/262
f 246/271/243 245/286/256 260/293/263
f 239/273/245 238/287/257 253/294/264
f 247/272/244 246/271/243 261/295/265
f 240/274/246 239/273/245 254/296/266
f 241/278/248 240/274/246 255/298/268
f 234/279/249 233/276/247 248/300/269
f 242/280/250 241/278/248 256/302/270
f 235/281/251 234/279/249 249/303/271
f 243/282/252 242/280/250 257/304/272
f 255/298/268 254/296/266 269/305/273
f 256/302/270 255/298/268 270/306/274
f 249/303/271 248/300/269 263/308/275
f 257/304/272 256/302/270 271/311/277
f 250/288/258 249/303/271 264/312/278
f 258/290/260 257/304/272 272/313/279
f 251/289/259 250/288/258 265/314/280
f 259/291/261 258/290/260 273/315/281
f 252/292/262 251/289/259 266/316/282
f 260/293/263 259/291/261 274/317/283
f 253/294/264 252/292/262 267/318/284
f 261/295/265 260/293/263 275/319/285
f 254/296/266 253/294/264 268/320/286
f 262/297/267 261/295/265 276/321/287
f 274/317/283 273/315/281 288/322/288
f 267/318/284 266/316/282 281/324/290
f 275/319/285 274/317/283 289/323/289
f 268/320/286 267/318/284 282/325/291
f 276/321/287 275/319/285 290/326/292
f 269/305/273 268/320/286 283/327/293
f 277/310/276 276/321/287 291/328/294
f 270/306/274 269/305/273 284/329/295
f 271/311/277 270/306/274 285/331/297
f 264/312/278 263/308/275 278/333/298
f 272/313/279 271/311/277 286/335/299
f 265/314/280 264/312/278 279/336/300
f 273/315/281 272/313/279 287/337/301
f 266/316/282 265/314/280 280/338/302
f 286/335/299 285/331/297 300/341/304
f 279/336/300 278/333/298 293/343/306
f 287/337/301 286/335/299 301/342/305
f 280/338/302 279/336/300 294/344/307
f 288/322/288 287/337/301 302/345/308
f 281/324/290 280/338/302 295/346/309
f 289/323/289 288/322/288 303/347/310
f 282/325/291 281/324/290 296/348/311
f 290/326/292 289/323/289 304/349/312
f 283/327/293 282/325/291 297/350/313
f 291/328/294 290/326/292 305/351/314
f 284/329/295 283/327/293 298/352/315
f 292/330/296 291/328/294 306/353/316
f 285/331/297 284/329/295 299/354/317
f 305/351/314 304/349/312 320/356/318
f 298/352/315 297/350/313 313/358/320
f 306/353/316 305/351/314 321/357/319
f 299/354/317 298/352/315 314/359/321
f 307/340/303 306/353/316 322/360/322
f 300/341/304 299/354/317 315/361/323
f 301/342/305 300/341/304 316/363/325
f 294/344/307 293/343/306 309/365/326
f 302/345/308 301/342/305 317/367/327
f 295/346/309 294/344/307 310/368/328
f 303/347/310 302/345/308 318/369/329
f 296/348/311 295/346/309 311/370/330
f 304/349/312 303/347/310 319/371/331
f 297/350/313 296/348/311 312/372/332
f 310/368/328 309/365/326 324/373/333
f 318/369/329 317/367/327 332/375/335
f 311/370/330 310/368/328 325/374/334
f 319/371/331 318/369/329 333/376/336
f 312/372/332 311/370/330 326/377/337
f 320/356/318 319/371/331 334/378/338
f 313/358/320 312/372/332 327/379/339
f 321/357/319 320/356/318 335/380/340
f 314/359/321 313/358/320 328/381/341
f 322/360/322 321/357/319 336/382/342
f 315/361/323 314/359/321 329/383/343
f 323/362/324 322/360/322 337/384/344
f 316/363/325 315/361/323 330/385/345
f 317/367/327 316/363/325 331/387/347
f 329/383/343 328/381/341 343/390/348
f 337/384/344 336/382/342 351/392/350
f 330/385/345 329/383/343 344/391/349
f 338/386/346 337/384/344 352/393/351
f 331/387/347 330/385/345 345/394/352
f 332/375/335 331/387/347 346/396/354
f 325/374/334 324/373/333 339/398/355
f 333/376/336 332/375/335 347/400/356
f 326/377/337 325/374/334 340/401/357
f 334/378/338 333/376/336 348/402/358
f 327/379/339 326/377/337 341/403/359
f 335/380/340 334/378/338 349/404/360
f 328/381/341 327/379/339 342/405/361
f 336/382/342 335/380/340 350/406/362
f 348/402/358 347/400/356 362/407/363
f 341/403/359 340/401/357 355/409/365
f 349/404/360 348/402/358 363/408/364
f 342/405/361 341/403/359 356/410/366
f 350/406/362 349/404/360 364/411/367
f 343/390/348 342/405/361 357/412/368
f 351/392/350 350/406/362 365/413/369
f 344/391/349 343/390/348 358/414/370
f 352/393/351 351/392/350 366/415/371
f 345/394/352 344/391/349 359/416/372
f 353/395/353 352/393/351 367/417/373
f 346/396/354 345/394/352 360/418/374
f 347/400/356 346/396/354 361/420/376
f 340/401/357 339/398/355 354/422/377
f 367/424/373 366/454/371 381/425/378
f 360/427/374 359/455/372 374/428/380
f 368/430/375 367/424/373 382/426/379
f 361/432/376 360/427/374 375/429/381
f 362/438/363 361/432/376 376/433/383
f 355/440/365 354/434/377 369/436/384
f 363/442/364 362/438/363 377/439/385
f 356/444/366 355/440/365 370/441/386
f 364/446/367 363/442/364 378/443/387
f 357/448/368 356/444/366 371/445/388
f 365/450/369 364/446/367 379/447/389
f 358/452/370 357/448/368 372/449/390
f 366/454/371 365/450/369 380/451/391
f 359/455/372 358/452/370 373/453/392
f 371/445/388 370/441/386 385/456/393
f 379/447/389 378/443/387 393/458/395
f 372/449/390 371/445/388 386/457/394
f 380/451/391 379/447/389 394/459/396
f 373/453/392 372/449/390 387/460/397
f 381/425/378 380/451/391 395/461/398
f 374/428/380 373/453/392 388/462/399
f 382/426/379 381/425/378 396/463/400
f 375/429/381 374/428/380 389/464/401
f 383/431/382 382/426/379 397/465/402
f 376/433/383 375/429/381 390/466/403
f 377/439/385 376/433/383 391/468/405
f 370/441/386 369/436/384 384/470/406
f 378/443/387 377/439/385 392/472/407
f 390/466/403 389/464/401 404/473/408
f 398/467/404 397/465/402 412/475/410
f 391/468/405 390/466/403 405/474/409
f 392/472/407 391/468/405 406/477/412
f 385/456/393 384/470/406 399/479/413
f 393/458/395 392/472/407 407/481/414
f 386/457/394 385/456/393 400/482/415
f 394/459/396 393/458/395 408/483/416
f 387/460/397 386/457/394 401/484/417
f 395/461/398 394/459/396 409/485/418
f 388/462/399 387/460/397 402/486/419
f 396/463/400 395/461/398 410/487/420
f 389/464/401 388/462/399 403/488/421
f 397/465/402 396/463/400 411/489/422
f 409/485/418 408/483/416 423/490/423
f 402/486/419 401/484/417 416/492/425
f 410/487/420 409/485/418 424/491/424
f 403/488/421 402/486/419 417/493/426
f 411/489/422 410/487/420 425/494/427
f 404/473/408 403/488/421 418/495/428
f 412/475/410 411/489/422 426/496/429
f 405/474/409 404/473/408 419/497/430
f 413/476/411 412/475/410 427/498/431
f 406/477/412 405/474/409 420/499/432
f 407/481/414 406/477/412 421/501/434
f 400/482/415 399/479/413 414/503/435
f 408/483/416 407/481/414 422/505/436
f 401/484/417 400/482/415 415/506/437
f 428/500/433 427/498/431 442/507/438
f 421/501/434 420/499/432 435/509/440
f 422/505/436 421/501/434 436/510/441
f 415/506/437 414/503/435 429/512/442
f 423/490/423 422/505/436 437/514/443
f 416/492/425 415/506/437 430/515/444
f 424/491/424 423/490/423 438/516/445
f 417/493/426 416/492/425 431/517/446
f 425/494/427 424/491/424 439/518/447
f 418/495/428 417/493/426 432/519/448
f 426/496/429 425/494/427 440/520/449
f 419/497/430 418/495/428 433/521/450
f 427/498/431 426/496/429 441/522/451
f 420/499/432 419/497/430 434/523/452
f 440/520/449 439/518/447 454/524/453
f 433/521/450 432/519/448 447/526/455
f 441/522/451 440/520/449 455/525/454
f 434/523/452 433/521/450 448/527/456
f 442/507/438 441/522/451 456/528/457
f 435/509/440 434/523/452 449/529/458
f 443/508/439 442/507/438 457/530/459
f 436/510/441 435/509/440 450/531/460
f 437/514/443 436/510/441 451/533/462
f 430/515/444 429/512/442 444/535/463
f 438/516/445 437/514/443 452/537/464
f 431/517/446 430/515/444 445/538/465
f 439/518/447 438/516/445 453/539/466
f 432/519/448 431/517/446 446/540/467
f 452/537/464 451/533/462 466/545/470
f 445/538/465 444/535/463 459/542/468
f 453/539/466 452/537/464 467/546/471
f 446/540/467 445/538/465 460/547/472
f 454/524/453 453/539/466 468/548/473
f 447/526/455 446/540/467 461/549/474
f 455/525/454 454/524/453 469/550/475
f 448/527/456 447/526/455 462/551/476
f 456/528/457 455/525/454 470/552/477
f 449/529/458 448/527/456 463/553/478
f 457/530/459 456/528/457 471/554/479
f 450/531/460 449/529/458 464/555/480
f 458/532/461 457/530/459 472/556/481
f 451/533/462 450/531/460 465/557/482
f 463/553/478 462/551/476 476/32/32
f 471/554/479 470/552/477 479/1/1
f 464/555/480 463/553/478 2/4/4
f 472/556/481 471/554/479 480/7/7
f 465/557/482 464/555/480 477/9/9
f 473/544/469 472/556/481 481/11/11
f 466/545/470 465/557/482 3/13/13
f 467/546/471 466/545/470 4/17/17
f 460/547/472 459/542/468 474/19/19
f 468/548/473 467/546/471 5/23/23
f 461/549/474 460/547/472 475/25/25
f 469/550/475 468/548/473 478/27/27
f 462/551/476 461/549/474 1/29/29
f 470/552/477 469/550/475 6/31/31
